;TYPE=PLATED
;Layer: PTH_Through_Via
;EasyEDA Pro Client v2.1.35.b8f67982.0908df, 2023-11-24 13:13:44
;Gerber Generator version 0.3
M48
METRIC,LZ,000.000
;Hole size 1 = 0.304 METRIC
T01C0.304
;Hole size 2 = 0.305 METRIC
T02C0.305
%
G05
G90
T01
X-015037Y-009754
X-015037Y000406
X-008230Y000051
X-009957Y010566
X-004928Y-012141
X004318Y-018745
X005131Y011379
X005283Y015646
X010363Y015646
X015443Y-009754
X015443Y010566
T02
X009703Y-004013
X009652Y-004978
X-000635Y002705
X007518Y-004572
X004318Y-006604
X009601Y-005893
X007264Y-007214
X-002134Y-007010
X-004115Y-002845
X009720Y-008084
X005385Y-003454
X-003912Y-001524
X013259Y002896
X013259Y002032
X004843Y-010624
X005453Y-010624
X-007439Y-013954
X-007439Y-015889
X-007439Y-018948
X-004939Y-018988
X-004939Y-015842
X-004939Y-013907
X-004939Y-017400
X-007439Y-017400
X-002439Y-013860
X-002439Y-018999
X-002439Y-015889
X-002439Y-017353
X000061Y-013860
X000061Y-015842
X000061Y-017353
X000061Y-018948
X-007439Y015169
X-004939Y015169
X-002439Y015169
X000061Y015190
X000061Y018593
X000061Y016890
X-002439Y016869
X-004939Y016848
X-007439Y016869
X-004939Y018593
X-002439Y018593
X000061Y012812
X-002439Y012812
X-004939Y012812
X-007439Y012812
X-004343Y007447
X-003759Y008077
X006737Y007337
X006743Y008406
X-011137Y008344
X-013005Y007112
X-014072Y004267
X008081Y010483
X-015290Y003980
X008081Y012623
X-007417Y-009195
X-012562Y-009185
X-010246Y-009195
X-010719Y-014275
X003150Y-014275
X005537Y004928
X003983Y004928
X-005480Y004934
X-007074Y004934
X-007061Y003912
X-005486Y003912
X004025Y004023
X005556Y004023
X010516Y007518
X010566Y005842
X-002118Y002797
X-002098Y003719
X007976Y-008585
X-000762Y-007010
X-007439Y018593
X018796Y007620
X018796Y005029
X018796Y002540
X018796Y000000
X018796Y-002540
X018796Y-005080
X018796Y-007620
X017272Y007620
X017272Y005029
X017272Y002540
X017272Y000000
X017323Y-002540
X017323Y-005080
X017323Y-007620
X018593Y011989
X012700Y018694
X-012294Y018847
X-018542Y011532
X-012344Y011481
X012703Y012006
X017628Y-011481
X010516Y-011684
X011481Y-018644
X-011938Y-018999
X-012090Y-011633
X-018796Y-011582
X007010Y-012598
X003150Y-011887
X-004928Y-010312
X-014681Y-004267
X-010719Y002235
X-018591Y004426
X002743Y014834
X-010008Y014935
X-016764Y007620
X-016490Y-004250
X015520Y007620
X015443Y005029
X015430Y002540
X015450Y000000
X015414Y-002540
X015394Y-005075
X015430Y-007631
X004470Y-001270
M30