G04 Layer: TopLayer*
G04 EasyEDA Pro v2.1.35.b8f67982.0908df, 2023-11-24 13:13:42*
G04 Gerber Generator version 0.3*
G04 Scale: 100 percent, Rotated: No, Reflected: No*
G04 Dimensions in millimeters*
G04 Leading zeros omitted, absolute positions, 3 integers and 3 decimals*
%FSLAX33Y33*%
%MOMM*%
%ADD8191C,0.203*%
%ADD10C,2.693*%
%ADD11C,0.437*%
%ADD12C,0.408*%
%ADD13C,0.455*%
%ADD14C,0.4177*%
%ADD15C,0.405*%
%ADD16C,0.605*%
%ADD17C,1.755*%
%ADD18C,0.949*%
%ADD19C,0.292*%
%ADD20C,0.305*%
%ADD21C,0.815*%
%ADD22C,0.748*%
%ADD23C,0.187*%
%ADD24C,1.105*%
%ADD25C,0.64*%
%ADD26R,2.046X1.62*%
%ADD27R,2.046X1.62*%
%ADD28R,0.8X0.9*%
%ADD29R,0.6X1.2*%
%ADD30R,3.3X2.4*%
%ADD31R,0.806X0.864*%
%ADD32R,0.806X0.864*%
%ADD33R,0.864X0.806*%
%ADD34R,0.9X0.8*%
%ADD35R,0.8X0.9*%
%ADD36R,1.485X1.62*%
%ADD37O,1.742X0.364*%
%ADD38R,1.3X4.5*%
%ADD39R,1.8X3.9*%
%ADD40R,1.3X4.5*%
%ADD41R,1.8X3.9*%
%ADD42R,1.2X3.5*%
%ADD43R,1.1X1.7*%
%ADD44R,0.672X1.575*%
%ADD45R,1.575X0.672*%
%ADD46R,1.701X1.208*%
%ADD47R,1.208X1.701*%
%ADD48O,1.888X0.574*%
%ADD49R,2.2X1.27*%
%ADD50C,0.61*%
%ADD51C,0.254*%
%ADD52C,0.508*%
%ADD53C,0.307*%
%ADD54C,1.27*%
%ADD55C,0.8*%
%ADD56C,1.8*%
G75*


G04 Copper Start*
G36*
G01X-15000Y-19642D02*
G02X-19642Y-15000I0J4642D01*
G01Y15000D01*
G02X-15000Y19642I4642J0D01*
G01X-8133D01*
G03X-8697Y18593I694J-1049D01*
G01Y16869D01*
G01Y15169D01*
G01Y12812D01*
G03X-8447Y12059I1258J0D01*
G01Y8979D01*
G01X-8586Y8840D01*
G03X-8766Y8407I433J-433D01*
G01Y8223D01*
G03X-8812Y8047I312J-176D01*
G01Y7247D01*
G03X-9161Y7526I-349J-79D01*
G01X-9662D01*
G03X-9048Y8444I-378J918D01*
G03X-9362Y9169I-993J0D01*
G03X-9233Y9444I-229J275D01*
G01Y10244D01*
G03X-9591Y10602I-358J0D01*
G01X-10491D01*
G03X-10849Y10244I0J-358D01*
G01Y9444D01*
G01Y9437D01*
G01X-11037D01*
G03X-11472Y9337I0J-993D01*
G01X-11773D01*
G03X-12475Y9046I0J-993D01*
G01X-13707Y7814D01*
G03X-13998Y7112I702J-702D01*
G01Y5745D01*
G01X-14332Y5411D01*
G01Y5730D01*
G03X-14690Y6088I-358J0D01*
G01X-15890D01*
G03X-16249Y5730I0J-358D01*
G01Y4427D01*
G01X-17389Y3286D01*
G03X-17680Y2584I702J-702D01*
G01Y-245D01*
G01Y-1035D01*
G01X-19012Y-2368D01*
G03X-19303Y-3070I702J-702D01*
G01Y-5566D01*
G03X-19012Y-6268I993J0D01*
G01X-18363Y-6917D01*
G01Y-8036D01*
G01X-18393D01*
G03X-18751Y-8394I0J-358D01*
G01Y-10014D01*
G03X-18393Y-10372I358J0D01*
G01X-16347D01*
G03X-15989Y-10014I0J358D01*
G01Y-8394D01*
G03X-16347Y-8036I-358J0D01*
G01X-16377D01*
G01Y-6506D01*
G03X-16668Y-5804I-993J0D01*
G01X-17317Y-5155D01*
G01Y-5002D01*
G01X-17309Y-5014D01*
G01X-17300Y-5028D01*
G01X-17275Y-5064D01*
G01X-17265Y-5078D01*
G01X-17237Y-5113D01*
G01X-17227Y-5126D01*
G01X-17198Y-5160D01*
G01X-17187Y-5173D01*
G01X-17157Y-5205D01*
G01X-17145Y-5217D01*
G01X-17113Y-5248D01*
G01X-17101Y-5260D01*
G01X-17067Y-5290D01*
G01X-17055Y-5300D01*
G01X-17020Y-5328D01*
G01X-17007Y-5339D01*
G01X-16971Y-5365D01*
G01X-16957Y-5375D01*
G01X-16920Y-5399D01*
G01X-16906Y-5408D01*
G01X-16867Y-5431D01*
G01X-16853Y-5439D01*
G01X-16814Y-5460D01*
G01X-16798Y-5468D01*
G01X-16758Y-5487D01*
G01X-16743Y-5494D01*
G01X-16702Y-5511D01*
G01X-16686Y-5518D01*
G01X-16645Y-5533D01*
G01X-16629Y-5538D01*
G01X-16586Y-5552D01*
G01X-16570Y-5556D01*
G01X-16527Y-5568D01*
G01X-16511Y-5572D01*
G01X-16467Y-5581D01*
G01X-16451Y-5584D01*
G01X-16407Y-5591D01*
G01X-16390Y-5594D01*
G01X-16346Y-5599D01*
G01X-16329Y-5600D01*
G01X-16285Y-5604D01*
G01X-16268D01*
G01X-16224Y-5605D01*
G01X-16215D01*
G01X-14361D01*
G01X-14352D01*
G01X-14308Y-5604D01*
G01X-14291D01*
G01X-14247Y-5600D01*
G01X-14230Y-5599D01*
G01X-14186Y-5594D01*
G01X-14169Y-5591D01*
G01X-14125Y-5584D01*
G01X-14109Y-5581D01*
G01X-14065Y-5572D01*
G01X-14049Y-5568D01*
G01X-14006Y-5556D01*
G01X-13990Y-5552D01*
G01X-13947Y-5538D01*
G01X-13931Y-5533D01*
G01X-13889Y-5518D01*
G01X-13874Y-5511D01*
G01X-13833Y-5494D01*
G01X-13818Y-5487D01*
G01X-13817D01*
G01X-13777Y-5468D01*
G01X-13762Y-5460D01*
G01X-13723Y-5439D01*
G01X-13720Y-5438D01*
G03X-13721Y-5470I357J-32D01*
G01Y-6142D01*
G03X-13363Y-6500I358J0D01*
G01X-11788D01*
G03X-11505Y-6362I0J358D01*
G01X-11189D01*
G03X-11220Y-6508I327J-147D01*
G01Y-7308D01*
G03X-10862Y-7666I358J0D01*
G01X-9962D01*
G03X-9604Y-7308I0J358D01*
G01Y-6508D01*
G03X-9766Y-6208I-358J0D01*
G03X-9604Y-5921I-196J300D01*
G01X-9115D01*
G03X-8911Y-5954I204J612D01*
G01X-7597D01*
G03X-6952Y-5309I0J645D01*
G03X-7483Y-4674I-645J0D01*
G03X-7172Y-4524I-114J635D01*
G01X-7034D01*
G01X-5972Y-5586D01*
G01Y-6364D01*
G03X-6182Y-6625I141J-329D01*
G01X-6229D01*
G03X-6583Y-6320I-354J-53D01*
G01X-7390D01*
G03X-7740Y-6603I0J-358D01*
G03X-8090Y-6320I-350J-75D01*
G01X-8897D01*
G03X-9255Y-6679I0J-358D01*
G01Y-7543D01*
G03X-8897Y-7901I358J0D01*
G01X-8090D01*
G03X-7740Y-7618I0J358D01*
G03X-7390Y-7901I350J75D01*
G01X-6583D01*
G03X-6229Y-7596I0J358D01*
G01X-6186D01*
G03X-5830Y-7916I356J38D01*
G01X-5323D01*
G01X-4920Y-8319D01*
G03X-4577Y-8461I343J343D01*
G01X-3859D01*
G01X-3447Y-8872D01*
G01Y-12247D01*
G03X-3697Y-13000I1008J-753D01*
G01Y-13860D01*
G01Y-15889D01*
G01Y-17353D01*
G01Y-18800D01*
G03X-3374Y-19642I1258J0D01*
G01X-6504D01*
G03X-6181Y-18800I-935J842D01*
G01Y-17400D01*
G01Y-15889D01*
G01Y-13954D01*
G01Y-13000D01*
G03X-6431Y-12247I-1258J0D01*
G01Y-9315D01*
G03X-6424Y-9195I-986J120D01*
G03X-6431Y-9075I-993J0D01*
G01Y-8646D01*
G03X-6789Y-8288I-358J0D01*
G01X-7012D01*
G03X-7417Y-8202I-405J-907D01*
G01X-10246D01*
G01X-10253D01*
G01X-11226D01*
G03X-11539Y-8017I-313J-174D01*
G01X-13585D01*
G03X-13943Y-8375I0J-358D01*
G01Y-9995D01*
G03X-13585Y-10354I358J0D01*
G01X-11539D01*
G03X-11237Y-10188I0J358D01*
G01X-10246D01*
G01X-10239D01*
G01X-8447D01*
G01Y-12247D01*
G03X-8697Y-13000I1008J-753D01*
G01Y-13954D01*
G01Y-15889D01*
G01Y-17400D01*
G01Y-18800D01*
G03X-8374Y-19642I1258J0D01*
G01X-15000D01*
G37*
%LPC*%
G36*
G01X-17458Y-15500D02*
G03X-15500Y-17458I1958J0D01*
G03X-13542Y-15500I0J1958D01*
G03X-15500Y-13542I-1958J0D01*
G03X-17458Y-15500I0J-1958D01*
G37*
G36*
G01X-15500Y13542D02*
G03X-13542Y15500I0J1958D01*
G03X-15500Y17458I-1958J0D01*
G03X-17458Y15500I0J-1958D01*
G03X-15500Y13542I1958J0D01*
G37*
G36*
G01X-16249Y7570D02*
G03X-15890Y7212I358J0D01*
G01X-14690D01*
G03X-14332Y7570I0J358D01*
G01Y11070D01*
G03X-14690Y11428I-358J0D01*
G01X-15890D01*
G03X-16249Y11070I0J-358D01*
G01Y7570D01*
G37*
%LPD*%
G36*
G01X4286Y-5942D02*
G03X4091Y-5981I32J-662D01*
G01Y-5328D01*
G03X3733Y-4970I-358J0D01*
G01X2927D01*
G03X2577Y-5253I0J-358D01*
G03X2315Y-4981I-350J-75D01*
G01Y-4920D01*
G03X2533Y-4767I-82J349D01*
G03X2833Y-4929I300J196D01*
G01X3633D01*
G03X3991Y-4571I0J358D01*
G01Y-3671D01*
G03X3633Y-3313I-358J0D01*
G01X2833D01*
G03X2533Y-3476I0J-358D01*
G03X2315Y-3323I-300J-196D01*
G01Y-3269D01*
G03X2583Y-2996I-82J349D01*
G03X2933Y-3279I350J75D01*
G01X3740D01*
G03X4098Y-2921I0J358D01*
G01Y-2057D01*
G03X3740Y-1699I-358J0D01*
G01X3489D01*
G01X3427Y-1637D01*
G01X3733D01*
G03X4091Y-1279I0J358D01*
G01Y-379D01*
G03X3733Y-21I-358J0D01*
G01X2933D01*
G03X2633Y-184I0J-358D01*
G03X2333Y-21I-300J-196D01*
G01X1533D01*
G03X1275Y-131I0J-358D01*
G01X191Y953D01*
G03X-152Y1095I-343J-343D01*
G01X-3685D01*
G01Y2230D01*
G03X-4043Y2588I-358J0D01*
G01X-4643D01*
G03X-4978Y2357I0J-358D01*
G03X-5313Y2588I-335J-127D01*
G01X-5913D01*
G03X-6248Y2357I0J-358D01*
G03X-6583Y2588I-335J-127D01*
G01X-7183D01*
G03X-7518Y2357I0J-358D01*
G03X-7853Y2588I-335J-127D01*
G01X-8453D01*
G03X-8812Y2230I0J-358D01*
G01Y1030D01*
G03X-8453Y672I358J0D01*
G01X-7853D01*
G03X-7518Y904I0J358D01*
G03X-7369Y724I335J127D01*
G01Y432D01*
G03X-7226Y89I485J0D01*
G01X-6236Y-902D01*
G03X-5893Y-1044I343J343D01*
G01X-4369D01*
G03X-4575Y-1524I457J-480D01*
G03X-3912Y-2187I663J0D01*
G03X-3740Y-2164I0J663D01*
G03X-3868Y-2229I226J-604D01*
G03X-4115Y-2182I-247J-615D01*
G03X-4778Y-2845I0J-663D01*
G03X-4115Y-3508I663J0D01*
G03X-3722Y-3379I0J663D01*
G03X-3627Y-3404I209J610D01*
G03X-4158Y-4039I114J-635D01*
G03X-3627Y-4674I645J0D01*
G03X-4125Y-5104I114J-635D01*
G03X-4178Y-5042I-396J-280D01*
G01X-6794Y-2426D01*
G03X-7137Y-2283I-343J-343D01*
G01X-7172D01*
G03X-7483Y-2134I-425J-485D01*
G03X-6952Y-1499I-114J635D01*
G03X-7597Y-853I-645J0D01*
G01X-8911D01*
G03X-9556Y-1499I0J-645D01*
G03X-9025Y-2134I645J0D01*
G03X-9337Y-2283I114J-635D01*
G01X-9670D01*
G01Y-1841D01*
G03X-10028Y-1482I-358J0D01*
G01X-10892D01*
G03X-11250Y-1841I0J-358D01*
G01Y-2647D01*
G03X-10967Y-2997I358J0D01*
G03X-11250Y-3347I75J-350D01*
G01Y-4154D01*
G03X-11024Y-4487I358J0D01*
G01Y-4789D01*
G03X-11220Y-5108I162J-319D01*
G01Y-5137D01*
G01X-11655D01*
G03X-11788Y-5112I-133J-333D01*
G01X-13337D01*
G01X-13311Y-5078D01*
G01X-13301Y-5064D01*
G01X-13276Y-5028D01*
G01X-13266Y-5014D01*
G01X-13249Y-4985D01*
G01X-11788D01*
G03X-11430Y-4627I0J358D01*
G01Y-3967D01*
G03X-11788Y-3609I-358J0D01*
G01X-13249D01*
G01X-13266Y-3581D01*
G01X-13276Y-3567D01*
G01X-13301Y-3530D01*
G01X-13311Y-3517D01*
G01X-13324Y-3500D01*
G01X-11788D01*
G03X-11430Y-3142I0J358D01*
G01Y-2470D01*
G03X-11788Y-2112I-358J0D01*
G01X-12217D01*
G01Y-702D01*
G03X-12379Y-289I-612J0D01*
G01Y605D01*
G03X-12737Y963I-358J0D01*
G01X-13837D01*
G03X-14195Y605I0J-358D01*
G01Y-1095D01*
G03X-13837Y-1453I358J0D01*
G01X-13442D01*
G01Y-2120D01*
G03X-13721Y-2470I79J-349D01*
G01Y-3142D01*
G01Y-3156D01*
G01X-13723Y-3155D01*
G01X-13762Y-3134D01*
G01X-13777Y-3127D01*
G01X-13818Y-3107D01*
G01X-13833Y-3101D01*
G01X-13874Y-3083D01*
G01X-13889Y-3077D01*
G01X-13931Y-3062D01*
G01X-13947Y-3056D01*
G01X-13990Y-3043D01*
G01X-14006Y-3038D01*
G01X-14049Y-3027D01*
G01X-14065Y-3023D01*
G01X-14109Y-3014D01*
G01X-14125Y-3011D01*
G01X-14169Y-3003D01*
G01X-14186Y-3001D01*
G01X-14230Y-2996D01*
G01X-14247Y-2994D01*
G01X-14291Y-2991D01*
G01X-14308Y-2990D01*
G01X-14352Y-2989D01*
G01X-14361D01*
G01X-16215D01*
G01X-16224D01*
G01X-16268Y-2990D01*
G01X-16285Y-2991D01*
G01X-16329Y-2994D01*
G01X-16346Y-2996D01*
G01X-16390Y-3001D01*
G01X-16407Y-3003D01*
G01X-16451Y-3011D01*
G01X-16467Y-3014D01*
G01X-16511Y-3023D01*
G01X-16527Y-3027D01*
G01X-16570Y-3038D01*
G01X-16586Y-3043D01*
G01X-16629Y-3056D01*
G01X-16645Y-3062D01*
G01X-16686Y-3077D01*
G01X-16702Y-3083D01*
G01X-16743Y-3101D01*
G01X-16758Y-3107D01*
G01X-16798Y-3127D01*
G01X-16814Y-3134D01*
G01X-16853Y-3155D01*
G01X-16867Y-3164D01*
G01X-16906Y-3187D01*
G01X-16920Y-3195D01*
G01X-16957Y-3220D01*
G01X-16971Y-3230D01*
G01X-17007Y-3256D01*
G01X-17020Y-3266D01*
G01X-17055Y-3294D01*
G01X-17067Y-3305D01*
G01X-17101Y-3335D01*
G01X-17113Y-3346D01*
G01X-17145Y-3377D01*
G01X-17157Y-3389D01*
G01X-17187Y-3422D01*
G01X-17198Y-3434D01*
G01X-17227Y-3468D01*
G01X-17237Y-3481D01*
G01X-17265Y-3517D01*
G01X-17275Y-3530D01*
G01X-17300Y-3567D01*
G01X-17309Y-3581D01*
G01X-17317Y-3593D01*
G01Y-3481D01*
G01X-15985Y-2149D01*
G03X-15694Y-1447I-702J702D01*
G01Y-245D01*
G01Y1872D01*
G01X-14690D01*
G03X-14332Y2230I0J358D01*
G01Y2988D01*
G03X-13656Y3278I-26J993D01*
G01X-13369Y3565D01*
G01X-12303Y4632D01*
G03X-12012Y5334I-702J702D01*
G01Y6701D01*
G01X-11361Y7351D01*
G01X-11170D01*
G03X-11220Y7168I308J-183D01*
G01Y5960D01*
G03X-10862Y5602I358J0D01*
G01X-9161D01*
G03X-8929Y5687I0J358D01*
G01X-7315D01*
G03X-6882Y5866I0J612D01*
G01X-6451Y6298D01*
G03X-6275Y6665I-433J433D01*
G03X-6248Y6720I-309J182D01*
G03X-5913Y6489I335J127D01*
G01X-5313D01*
G03X-4978Y6720I0J358D01*
G03X-4643Y6489I335J127D01*
G01X-4043D01*
G03X-3685Y6847I0J358D01*
G01Y7033D01*
G01X-3223Y7495D01*
G03X-3001Y8031I-536J536D01*
G01Y8077D01*
G03X-3007Y8171I-758J0D01*
G03X-2872Y7967I568J229D01*
G01X-2397Y7492D01*
G03X-1964Y7313I433J433D01*
G01X-37D01*
G01Y7302D01*
G01Y5601D01*
G03X321Y5243I358J0D01*
G01X1529D01*
G03X1886Y5585I0J358D01*
G01X3912D01*
G03X4344Y5765I0J612D01*
G01X4630Y6050D01*
G03X4809Y6483I-433J433D01*
G01Y6562D01*
G03X4832Y6611I-312J176D01*
G03X5167Y6379I335J127D01*
G01X5767D01*
G03X6102Y6611I0J358D01*
G03X6437Y6379I335J127D01*
G01X7037D01*
G03X7395Y6737I0J358D01*
G01Y6961D01*
G03X7495Y7337I-658J376D01*
G01Y8970D01*
G03X7837Y9167I-194J733D01*
G01X8081Y9411D01*
G01X8345Y9147D01*
G03X8881Y8925I536J536D01*
G01X9025D01*
G01Y8900D01*
G03X9383Y8541I358J0D01*
G01X9601D01*
G01X9591Y8532D01*
G01X9560Y8500D01*
G01X9548Y8488D01*
G01X9519Y8454D01*
G01X9508Y8442D01*
G01X9480Y8407D01*
G01X9469Y8394D01*
G01X9443Y8358D01*
G01X9434Y8344D01*
G01X9409Y8307D01*
G01X9400Y8293D01*
G01X9377Y8254D01*
G01X9369Y8240D01*
G01X9348Y8201D01*
G01X9340Y8185D01*
G01X9321Y8145D01*
G01X9314Y8130D01*
G01X9297Y8089D01*
G01X9291Y8073D01*
G01X9275Y8032D01*
G01X9270Y8016D01*
G01X9257Y7973D01*
G01X9252Y7957D01*
G01X9241Y7914D01*
G01X9237Y7898D01*
G01X9227Y7854D01*
G01X9224Y7837D01*
G01X9217Y7794D01*
G01X9215Y7777D01*
G01X9209Y7733D01*
G01X9208Y7716D01*
G01X9205Y7672D01*
G01X9204Y7655D01*
G01X9203Y7610D01*
G01Y7602D01*
G01Y5748D01*
G01Y5739D01*
G01X9204Y5695D01*
G01X9205Y5678D01*
G01X9208Y5634D01*
G01X9209Y5617D01*
G01X9215Y5573D01*
G01X9217Y5556D01*
G01X9224Y5512D01*
G01X9227Y5495D01*
G01X9237Y5452D01*
G01X9241Y5436D01*
G01X9252Y5393D01*
G01X9257Y5377D01*
G01X9270Y5334D01*
G01X9275Y5318D01*
G01X9291Y5276D01*
G01X9297Y5261D01*
G01X9314Y5220D01*
G01X9321Y5204D01*
G01X9340Y5164D01*
G01X9348Y5149D01*
G01X9369Y5110D01*
G01X9371Y5107D01*
G03X9338Y5108I-32J-357D01*
G01X9210D01*
G03X9042Y5127I-168J-739D01*
G03X8875Y5108I0J-758D01*
G01X8666D01*
G03X8308Y4750I0J-358D01*
G01Y4558D01*
G03X8284Y4369I734J-189D01*
G01Y3283D01*
G03X8506Y2747I758J0D01*
G01X9351Y1902D01*
G03X9887Y1680I536J536D01*
G01X12538D01*
G01X12723Y1496D01*
G03X13144Y1283I536J536D01*
G01X12916Y1054D01*
G03X12774Y711I343J-343D01*
G01Y-1323D01*
G01X11544Y-2553D01*
G03X11402Y-2896I343J-343D01*
G01Y-3450D01*
G01X10568D01*
G03X10210Y-3586I0J-540D01*
G03X9703Y-3350I-507J-428D01*
G03X9344Y-3455I0J-663D01*
G01Y-3274D01*
G03X9612Y-3000I-82J349D01*
G03X9963Y-3283I350J75D01*
G01X10769D01*
G03X11127Y-2925I0J358D01*
G01Y-2061D01*
G03X10851Y-1712I-358J0D01*
G01Y-1625D01*
G03X11118Y-1358I-82J349D01*
G01X11215D01*
G03X11512Y-1515I297J201D01*
G01X12412D01*
G03X12770Y-1157I0J358D01*
G01Y-357D01*
G03X12607Y-57I-358J0D01*
G03X12770Y243I-196J300D01*
G01Y1043D01*
G03X12412Y1401I-358J0D01*
G01X11512D01*
G03X11154Y1043I0J-358D01*
G01Y243D01*
G03X11316Y-57I358J0D01*
G03X11154Y-357I196J-300D01*
G01Y-388D01*
G01X11118D01*
G03X10844Y-120I-349J-82D01*
G03X11127Y231I-75J350D01*
G01Y1037D01*
G03X10769Y1395I-358J0D01*
G01X9905D01*
G03X9547Y1037I0J-358D01*
G01Y530D01*
G01X9463Y446D01*
G01Y1031D01*
G03X9105Y1389I-358J0D01*
G01X8205D01*
G03X7847Y1031I0J-358D01*
G01Y231D01*
G03X8009Y-69I358J0D01*
G03X7859Y-277I196J-300D01*
G01X7770D01*
G01X7222Y271D01*
G01Y614D01*
G03X7395Y921I-185J307D01*
G01Y2121D01*
G03X7037Y2479I-358J0D01*
G01X6437D01*
G03X6102Y2247I0J-358D01*
G03X5767Y2479I-335J-127D01*
G01X5167D01*
G03X4832Y2247I0J-358D01*
G03X4497Y2479I-335J-127D01*
G01X3897D01*
G03X3562Y2247I0J-358D01*
G03X3227Y2479I-335J-127D01*
G01X2627D01*
G03X2269Y2121I0J-358D01*
G01Y921D01*
G03X2627Y563I358J0D01*
G01X3227D01*
G03X3562Y794I0J358D01*
G03X3712Y614I335J127D01*
G01Y477D01*
G03X3854Y134I485J0D01*
G01X6424Y-2436D01*
G01Y-3497D01*
G03X6204Y-3450I-220J-493D01*
G01X6048D01*
G03X5385Y-2791I-663J-4D01*
G03X4722Y-3454I0J-663D01*
G01Y-3460D01*
G03X4286Y-3990I104J-530D01*
G03X4394Y-4315I540J0D01*
G03X4286Y-4640I431J-325D01*
G03X4394Y-4965I540J0D01*
G03X4286Y-5290I431J-325D01*
G03X4394Y-5615I540J0D01*
G03X4286Y-5940I431J-325D01*
G01Y-5942D01*
G37*
%LPC*%
G36*
G01X-1364Y2290D02*
G03X-1014Y2007I350J75D01*
G01X-208D01*
G03X150Y2344I0J358D01*
G01X281D01*
G03X629Y2071I348J85D01*
G01X1529D01*
G03X1887Y2429I0J358D01*
G01Y3229D01*
G03X1724Y3529I-358J0D01*
G03X1887Y3829I-196J300D01*
G01Y4629D01*
G03X1529Y4987I-358J0D01*
G01X629D01*
G03X271Y4629I0J-358D01*
G01Y3829D01*
G03X433Y3529I358J0D01*
G03X281Y3314I196J-300D01*
G01X140D01*
G03X-208Y3587I-348J-85D01*
G01X-1014D01*
G03X-1364Y3304I0J-358D01*
G03X-1474Y3494I-350J-75D01*
G03X-1435Y3719I-624J225D01*
G03X-1436Y3758I-663J0D01*
G03X-1418Y3783I-282J221D01*
G03X-1118Y3621I300J196D01*
G01X-318D01*
G03X40Y3979I0J358D01*
G01Y4879D01*
G03X-318Y5237I-358J0D01*
G01X-1118D01*
G03X-1418Y5075I0J-358D01*
G03X-1718Y5237I-300J-196D01*
G01X-2518D01*
G03X-2876Y4879I0J-358D01*
G01Y3979D01*
G03X-2761Y3716I358J0D01*
G03X-2730Y3520I663J3D01*
G03X-2879Y3229I209J-291D01*
G01Y2365D01*
G03X-2521Y2007I358J0D01*
G01X-1715D01*
G03X-1364Y2290I0J358D01*
G37*
%LPD*%
G36*
G01X-3627Y-2134D02*
G03X-3680Y-2145I114J-635D01*
G03X-3643Y-2130I-232J621D01*
G01X-3627Y-2134D01*
G37*
G36*
G01X19642Y-15000D02*
G02X15000Y-19642I-4642J0D01*
G01X996D01*
G03X1319Y-18800I-935J842D01*
G01Y-17353D01*
G01Y-15842D01*
G01Y-13860D01*
G01Y-13000D01*
G03X1069Y-12247I-1258J0D01*
G01Y-8646D01*
G03X711Y-8288I-358J0D01*
G01X-119D01*
G01X-622Y-7785D01*
G03X-965Y-7643I-343J-343D01*
G01X-1933D01*
G01Y-7642D01*
G03X-1470Y-7010I-201J632D01*
G03X-1648Y-6558I-663J0D01*
G01Y-5644D01*
G03X-1554Y-5309I-551J336D01*
G03X-2085Y-4674I-645J0D01*
G03X-1554Y-4039I-114J635D01*
G03X-2085Y-3404I-645J0D01*
G03X-1554Y-2769I-114J635D01*
G03X-2085Y-2134I-645J0D01*
G03X-1554Y-1499I-114J635D01*
G03X-1742Y-1044I-645J0D01*
G01X-1725D01*
G01X-892Y-1877D01*
G01Y-6045D01*
G03X-749Y-6388I485J0D01*
G01X2396Y-9533D01*
G03X2739Y-9676I343J343D01*
G01X4204D01*
G01X4176Y-9703D01*
G03X4027Y-10065I362J-362D01*
G01Y-11233D01*
G03X4176Y-11595I512J0D01*
G01X4481Y-11900D01*
G03X4722Y-12035I362J362D01*
G03X5077Y-12346I355J47D01*
G01X5877D01*
G03X6177Y-12184I0J358D01*
G03X6477Y-12346I300J196D01*
G01X7277D01*
G03X7635Y-11988I0J358D01*
G01Y-11088D01*
G03X7277Y-10730I-358J0D01*
G01X6477D01*
G03X6177Y-10893I0J-358D01*
G03X6091Y-10802I-300J-196D01*
G03X6116Y-10624I-639J178D01*
G03X6070Y-10381I-663J0D01*
G01X6204D01*
G03X6744Y-9840I0J540D01*
G03X6698Y-9624I-540J0D01*
G03X6965Y-9190I-219J433D01*
G03X6840Y-8865I-485J0D01*
G03X6965Y-8540I-360J325D01*
G03X6936Y-8376I-485J0D01*
G01X7591D01*
G03X7934Y-8233I0J485D01*
G01X8303Y-7864D01*
G01Y-8585D01*
G03X8445Y-8928I485J0D01*
G01X9101Y-9584D01*
G01Y-14104D01*
G03X8833Y-14377I82J-349D01*
G03X8483Y-14094I-350J-75D01*
G01X7676D01*
G03X7322Y-14399I0J-358D01*
G01X6858D01*
G03X6515Y-14541I0J-485D01*
G01X5956Y-15100D01*
G03X5814Y-15443I343J-343D01*
G01Y-16003D01*
G01X5519D01*
G03X5161Y-16361I0J-358D01*
G01Y-17981D01*
G03X5519Y-18339I358J0D01*
G01X7004D01*
G03X7363Y-17981I0J358D01*
G01Y-16361D01*
G03X7004Y-16003I-358J0D01*
G01X6784D01*
G01Y-15644D01*
G01X7059Y-15370D01*
G01X7322D01*
G03X7676Y-15675I354J53D01*
G01X8483D01*
G03X8833Y-15392I0J358D01*
G03X9183Y-15675I350J75D01*
G01X9989D01*
G03X10348Y-15316I0J358D01*
G01Y-14452D01*
G03X10071Y-14104I-358J0D01*
G01Y-10054D01*
G03X10568Y-10381I496J213D01*
G01X11946D01*
G03X12486Y-9840I0J540D01*
G03X12460Y-9676I-540J0D01*
G01X12755D01*
G03X13098Y-9533I0J485D01*
G01X13602Y-9030D01*
G03X13744Y-8687I-343J343D01*
G01Y-6069D01*
G03X13800Y-6073I56J354D01*
G01X14628D01*
G03X15394Y-6333I766J998D01*
G01X18682D01*
G03X18796Y-6338I114J1253D01*
G03X19642Y-6011I0J1258D01*
G01Y-6629D01*
G03X19600Y-6627I-42J-356D01*
G01X17400D01*
G03X17042Y-6985I0J-358D01*
G01Y-8255D01*
G03X17400Y-8613I358J0D01*
G01X19600D01*
G03X19642Y-8611I0J358D01*
G01Y-15000D01*
G37*
%LPC*%
G36*
G01X13542Y-15500D02*
G03X15500Y-17458I1958J0D01*
G03X17458Y-15500I0J1958D01*
G03X15500Y-13542I-1958J0D01*
G03X13542Y-15500I0J-1958D01*
G37*
G36*
G01X8146Y-17981D02*
G03X8504Y-18339I358J0D01*
G01X9989D01*
G03X10348Y-17981I0J358D01*
G01Y-16361D01*
G03X9989Y-16003I-358J0D01*
G01X8504D01*
G03X8146Y-16361I0J-358D01*
G01Y-17981D01*
G37*
%LPD*%
G36*
G01X13373Y7963D02*
G01X13204Y7794D01*
G01Y8119D01*
G01X13627Y8541D01*
G01X13883D01*
G03X14241Y8900I0J358D01*
G01Y10600D01*
G03X13883Y10958I-358J0D01*
G01X12783D01*
G03X12425Y10600I0J-358D01*
G01Y9484D01*
G01X11910Y8969D01*
G03X11688Y8433I536J-536D01*
G01Y8172D01*
G01X11682Y8185D01*
G01X11674Y8201D01*
G01X11653Y8240D01*
G01X11645Y8254D01*
G01X11622Y8293D01*
G01X11613Y8307D01*
G01X11588Y8344D01*
G01X11579Y8358D01*
G01X11552Y8394D01*
G01X11542Y8407D01*
G01X11514Y8442D01*
G01X11503Y8454D01*
G01X11473Y8488D01*
G01X11462Y8500D01*
G01X11431Y8532D01*
G01X11419Y8543D01*
G01X11386Y8574D01*
G01X11374Y8585D01*
G01X11340Y8614D01*
G01X11327Y8624D01*
G01X11291Y8652D01*
G01X11278Y8662D01*
G01X11241Y8687D01*
G01X11227Y8696D01*
G01X11190Y8720D01*
G01X11175Y8729D01*
G01X11136Y8751D01*
G01X11122Y8759D01*
G01X11082Y8779D01*
G01X11067Y8786D01*
G01X11026Y8804D01*
G01X11011Y8811D01*
G01X10969Y8827D01*
G01X10953Y8833D01*
G01X10911Y8847D01*
G01X10895Y8852D01*
G01X10853Y8865D01*
G01X10840Y8868D01*
G03X10841Y8900I-357J32D01*
G01Y10600D01*
G03X10483Y10958I-358J0D01*
G01X9383D01*
G03X9040Y10701I0J-358D01*
G01Y13361D01*
G03X8682Y13719I-358J0D01*
G01X7482D01*
G03X7123Y13361I0J-358D01*
G01Y10597D01*
G01X6987Y10461D01*
G01X6945D01*
G03X6762Y10511I-183J-308D01*
G01X5962D01*
G03X5662Y10348I0J-358D01*
G03X5362Y10511I-300J-196D01*
G01X4562D01*
G03X4204Y10153I0J-358D01*
G01Y9253D01*
G03X4220Y9147I358J0D01*
G01X3606D01*
G01X3278Y9475D01*
G03X2845Y9655I-433J-433D01*
G01X1069D01*
G01Y12059D01*
G03X1319Y12812I-1008J753D01*
G01Y15190D01*
G01Y16890D01*
G01Y18593D01*
G03X756Y19642I-1258J0D01*
G01X15000D01*
G02X19642Y15000I0J-4642D01*
G01Y8611D01*
G03X19600Y8613I-42J-356D01*
G01X19568D01*
G03X18796Y8878I-772J-993D01*
G01X17272D01*
G01X15520D01*
G03X14359Y8105I0J-1258D01*
G01X13716D01*
G03X13373Y7963I0J-485D01*
G37*
%LPC*%
G36*
G01X15500Y13542D02*
G03X17458Y15500I0J1958D01*
G03X15500Y17458I-1958J0D01*
G03X13542Y15500I0J-1958D01*
G03X15500Y13542I1958J0D01*
G37*
G36*
G01X8682Y14842D02*
G03X9040Y15201I0J358D01*
G01Y18701D01*
G03X8682Y19059I-358J0D01*
G01X7482D01*
G03X7123Y18701I0J-358D01*
G01Y15201D01*
G03X7482Y14842I358J0D01*
G01X8682D01*
G37*
%LPD*%
G54D8191*
G01X-15000Y-19642D02*
G02X-19642Y-15000I0J4642D01*
G01Y15000D01*
G02X-15000Y19642I4642J0D01*
G01X-8133D01*
G03X-8697Y18593I694J-1049D01*
G01Y16869D01*
G01Y15169D01*
G01Y12812D01*
G03X-8447Y12059I1258J0D01*
G01Y8979D01*
G01X-8586Y8840D01*
G03X-8766Y8407I433J-433D01*
G01Y8223D01*
G03X-8812Y8047I312J-176D01*
G01Y7247D01*
G03X-9161Y7526I-349J-79D01*
G01X-9662D01*
G03X-9048Y8444I-378J918D01*
G03X-9362Y9169I-993J0D01*
G03X-9233Y9444I-229J275D01*
G01Y10244D01*
G03X-9591Y10602I-358J0D01*
G01X-10491D01*
G03X-10849Y10244I0J-358D01*
G01Y9444D01*
G01Y9437D01*
G01X-11037D01*
G03X-11472Y9337I0J-993D01*
G01X-11773D01*
G03X-12475Y9046I0J-993D01*
G01X-13707Y7814D01*
G03X-13998Y7112I702J-702D01*
G01Y5745D01*
G01X-14332Y5411D01*
G01Y5730D01*
G03X-14690Y6088I-358J0D01*
G01X-15890D01*
G03X-16249Y5730I0J-358D01*
G01Y4427D01*
G01X-17389Y3286D01*
G03X-17680Y2584I702J-702D01*
G01Y-245D01*
G01Y-1035D01*
G01X-19012Y-2368D01*
G03X-19303Y-3070I702J-702D01*
G01Y-5566D01*
G03X-19012Y-6268I993J0D01*
G01X-18363Y-6917D01*
G01Y-8036D01*
G01X-18393D01*
G03X-18751Y-8394I0J-358D01*
G01Y-10014D01*
G03X-18393Y-10372I358J0D01*
G01X-16347D01*
G03X-15989Y-10014I0J358D01*
G01Y-8394D01*
G03X-16347Y-8036I-358J0D01*
G01X-16377D01*
G01Y-6506D01*
G03X-16668Y-5804I-993J0D01*
G01X-17317Y-5155D01*
G01Y-5002D01*
G01X-17309Y-5014D01*
G01X-17300Y-5028D01*
G01X-17275Y-5064D01*
G01X-17265Y-5078D01*
G01X-17237Y-5113D01*
G01X-17227Y-5126D01*
G01X-17198Y-5160D01*
G01X-17187Y-5173D01*
G01X-17157Y-5205D01*
G01X-17145Y-5217D01*
G01X-17113Y-5248D01*
G01X-17101Y-5260D01*
G01X-17067Y-5290D01*
G01X-17055Y-5300D01*
G01X-17020Y-5328D01*
G01X-17007Y-5339D01*
G01X-16971Y-5365D01*
G01X-16957Y-5375D01*
G01X-16920Y-5399D01*
G01X-16906Y-5408D01*
G01X-16867Y-5431D01*
G01X-16853Y-5439D01*
G01X-16814Y-5460D01*
G01X-16798Y-5468D01*
G01X-16758Y-5487D01*
G01X-16743Y-5494D01*
G01X-16702Y-5511D01*
G01X-16686Y-5518D01*
G01X-16645Y-5533D01*
G01X-16629Y-5538D01*
G01X-16586Y-5552D01*
G01X-16570Y-5556D01*
G01X-16527Y-5568D01*
G01X-16511Y-5572D01*
G01X-16467Y-5581D01*
G01X-16451Y-5584D01*
G01X-16407Y-5591D01*
G01X-16390Y-5594D01*
G01X-16346Y-5599D01*
G01X-16329Y-5600D01*
G01X-16285Y-5604D01*
G01X-16268D01*
G01X-16224Y-5605D01*
G01X-16215D01*
G01X-14361D01*
G01X-14352D01*
G01X-14308Y-5604D01*
G01X-14291D01*
G01X-14247Y-5600D01*
G01X-14230Y-5599D01*
G01X-14186Y-5594D01*
G01X-14169Y-5591D01*
G01X-14125Y-5584D01*
G01X-14109Y-5581D01*
G01X-14065Y-5572D01*
G01X-14049Y-5568D01*
G01X-14006Y-5556D01*
G01X-13990Y-5552D01*
G01X-13947Y-5538D01*
G01X-13931Y-5533D01*
G01X-13889Y-5518D01*
G01X-13874Y-5511D01*
G01X-13833Y-5494D01*
G01X-13818Y-5487D01*
G01X-13817D01*
G01X-13777Y-5468D01*
G01X-13762Y-5460D01*
G01X-13723Y-5439D01*
G01X-13720Y-5438D01*
G03X-13721Y-5470I357J-32D01*
G01Y-6142D01*
G03X-13363Y-6500I358J0D01*
G01X-11788D01*
G03X-11505Y-6362I0J358D01*
G01X-11189D01*
G03X-11220Y-6508I327J-147D01*
G01Y-7308D01*
G03X-10862Y-7666I358J0D01*
G01X-9962D01*
G03X-9604Y-7308I0J358D01*
G01Y-6508D01*
G03X-9766Y-6208I-358J0D01*
G03X-9604Y-5921I-196J300D01*
G01X-9115D01*
G03X-8911Y-5954I204J612D01*
G01X-7597D01*
G03X-6952Y-5309I0J645D01*
G03X-7483Y-4674I-645J0D01*
G03X-7172Y-4524I-114J635D01*
G01X-7034D01*
G01X-5972Y-5586D01*
G01Y-6364D01*
G03X-6182Y-6625I141J-329D01*
G01X-6229D01*
G03X-6583Y-6320I-354J-53D01*
G01X-7390D01*
G03X-7740Y-6603I0J-358D01*
G03X-8090Y-6320I-350J-75D01*
G01X-8897D01*
G03X-9255Y-6679I0J-358D01*
G01Y-7543D01*
G03X-8897Y-7901I358J0D01*
G01X-8090D01*
G03X-7740Y-7618I0J358D01*
G03X-7390Y-7901I350J75D01*
G01X-6583D01*
G03X-6229Y-7596I0J358D01*
G01X-6186D01*
G03X-5830Y-7916I356J38D01*
G01X-5323D01*
G01X-4920Y-8319D01*
G03X-4577Y-8461I343J343D01*
G01X-3859D01*
G01X-3447Y-8872D01*
G01Y-12247D01*
G03X-3697Y-13000I1008J-753D01*
G01Y-13860D01*
G01Y-15889D01*
G01Y-17353D01*
G01Y-18800D01*
G03X-3374Y-19642I1258J0D01*
G01X-6504D01*
G03X-6181Y-18800I-935J842D01*
G01Y-17400D01*
G01Y-15889D01*
G01Y-13954D01*
G01Y-13000D01*
G03X-6431Y-12247I-1258J0D01*
G01Y-9315D01*
G03X-6424Y-9195I-986J120D01*
G03X-6431Y-9075I-993J0D01*
G01Y-8646D01*
G03X-6789Y-8288I-358J0D01*
G01X-7012D01*
G03X-7417Y-8202I-405J-907D01*
G01X-10246D01*
G01X-10253D01*
G01X-11226D01*
G03X-11539Y-8017I-313J-174D01*
G01X-13585D01*
G03X-13943Y-8375I0J-358D01*
G01Y-9995D01*
G03X-13585Y-10354I358J0D01*
G01X-11539D01*
G03X-11237Y-10188I0J358D01*
G01X-10246D01*
G01X-10239D01*
G01X-8447D01*
G01Y-12247D01*
G03X-8697Y-13000I1008J-753D01*
G01Y-13954D01*
G01Y-15889D01*
G01Y-17400D01*
G01Y-18800D01*
G03X-8374Y-19642I1258J0D01*
G01X-15000D01*
G01X-17458Y-15500D02*
G03X-15500Y-17458I1958J0D01*
G03X-13542Y-15500I0J1958D01*
G03X-15500Y-13542I-1958J0D01*
G03X-17458Y-15500I0J-1958D01*
G01X-15500Y13542D02*
G03X-13542Y15500I0J1958D01*
G03X-15500Y17458I-1958J0D01*
G03X-17458Y15500I0J-1958D01*
G03X-15500Y13542I1958J0D01*
G01X-16249Y7570D02*
G03X-15890Y7212I358J0D01*
G01X-14690D01*
G03X-14332Y7570I0J358D01*
G01Y11070D01*
G03X-14690Y11428I-358J0D01*
G01X-15890D01*
G03X-16249Y11070I0J-358D01*
G01Y7570D01*
G01X4286Y-5942D02*
G03X4091Y-5981I32J-662D01*
G01Y-5328D01*
G03X3733Y-4970I-358J0D01*
G01X2927D01*
G03X2577Y-5253I0J-358D01*
G03X2315Y-4981I-350J-75D01*
G01Y-4920D01*
G03X2533Y-4767I-82J349D01*
G03X2833Y-4929I300J196D01*
G01X3633D01*
G03X3991Y-4571I0J358D01*
G01Y-3671D01*
G03X3633Y-3313I-358J0D01*
G01X2833D01*
G03X2533Y-3476I0J-358D01*
G03X2315Y-3323I-300J-196D01*
G01Y-3269D01*
G03X2583Y-2996I-82J349D01*
G03X2933Y-3279I350J75D01*
G01X3740D01*
G03X4098Y-2921I0J358D01*
G01Y-2057D01*
G03X3740Y-1699I-358J0D01*
G01X3489D01*
G01X3427Y-1637D01*
G01X3733D01*
G03X4091Y-1279I0J358D01*
G01Y-379D01*
G03X3733Y-21I-358J0D01*
G01X2933D01*
G03X2633Y-184I0J-358D01*
G03X2333Y-21I-300J-196D01*
G01X1533D01*
G03X1275Y-131I0J-358D01*
G01X191Y953D01*
G03X-152Y1095I-343J-343D01*
G01X-3685D01*
G01Y2230D01*
G03X-4043Y2588I-358J0D01*
G01X-4643D01*
G03X-4978Y2357I0J-358D01*
G03X-5313Y2588I-335J-127D01*
G01X-5913D01*
G03X-6248Y2357I0J-358D01*
G03X-6583Y2588I-335J-127D01*
G01X-7183D01*
G03X-7518Y2357I0J-358D01*
G03X-7853Y2588I-335J-127D01*
G01X-8453D01*
G03X-8812Y2230I0J-358D01*
G01Y1030D01*
G03X-8453Y672I358J0D01*
G01X-7853D01*
G03X-7518Y904I0J358D01*
G03X-7369Y724I335J127D01*
G01Y432D01*
G03X-7226Y89I485J0D01*
G01X-6236Y-902D01*
G03X-5893Y-1044I343J343D01*
G01X-4369D01*
G03X-4575Y-1524I457J-480D01*
G03X-3912Y-2187I663J0D01*
G03X-3740Y-2164I0J663D01*
G03X-3868Y-2229I226J-604D01*
G03X-4115Y-2182I-247J-615D01*
G03X-4778Y-2845I0J-663D01*
G03X-4115Y-3508I663J0D01*
G03X-3722Y-3379I0J663D01*
G03X-3627Y-3404I209J610D01*
G03X-4158Y-4039I114J-635D01*
G03X-3627Y-4674I645J0D01*
G03X-4125Y-5104I114J-635D01*
G03X-4178Y-5042I-396J-280D01*
G01X-6794Y-2426D01*
G03X-7137Y-2283I-343J-343D01*
G01X-7172D01*
G03X-7483Y-2134I-425J-485D01*
G03X-6952Y-1499I-114J635D01*
G03X-7597Y-853I-645J0D01*
G01X-8911D01*
G03X-9556Y-1499I0J-645D01*
G03X-9025Y-2134I645J0D01*
G03X-9337Y-2283I114J-635D01*
G01X-9670D01*
G01Y-1841D01*
G03X-10028Y-1482I-358J0D01*
G01X-10892D01*
G03X-11250Y-1841I0J-358D01*
G01Y-2647D01*
G03X-10967Y-2997I358J0D01*
G03X-11250Y-3347I75J-350D01*
G01Y-4154D01*
G03X-11024Y-4487I358J0D01*
G01Y-4789D01*
G03X-11220Y-5108I162J-319D01*
G01Y-5137D01*
G01X-11655D01*
G03X-11788Y-5112I-133J-333D01*
G01X-13337D01*
G01X-13311Y-5078D01*
G01X-13301Y-5064D01*
G01X-13276Y-5028D01*
G01X-13266Y-5014D01*
G01X-13249Y-4985D01*
G01X-11788D01*
G03X-11430Y-4627I0J358D01*
G01Y-3967D01*
G03X-11788Y-3609I-358J0D01*
G01X-13249D01*
G01X-13266Y-3581D01*
G01X-13276Y-3567D01*
G01X-13301Y-3530D01*
G01X-13311Y-3517D01*
G01X-13324Y-3500D01*
G01X-11788D01*
G03X-11430Y-3142I0J358D01*
G01Y-2470D01*
G03X-11788Y-2112I-358J0D01*
G01X-12217D01*
G01Y-702D01*
G03X-12379Y-289I-612J0D01*
G01Y605D01*
G03X-12737Y963I-358J0D01*
G01X-13837D01*
G03X-14195Y605I0J-358D01*
G01Y-1095D01*
G03X-13837Y-1453I358J0D01*
G01X-13442D01*
G01Y-2120D01*
G03X-13721Y-2470I79J-349D01*
G01Y-3142D01*
G01Y-3156D01*
G01X-13723Y-3155D01*
G01X-13762Y-3134D01*
G01X-13777Y-3127D01*
G01X-13818Y-3107D01*
G01X-13833Y-3101D01*
G01X-13874Y-3083D01*
G01X-13889Y-3077D01*
G01X-13931Y-3062D01*
G01X-13947Y-3056D01*
G01X-13990Y-3043D01*
G01X-14006Y-3038D01*
G01X-14049Y-3027D01*
G01X-14065Y-3023D01*
G01X-14109Y-3014D01*
G01X-14125Y-3011D01*
G01X-14169Y-3003D01*
G01X-14186Y-3001D01*
G01X-14230Y-2996D01*
G01X-14247Y-2994D01*
G01X-14291Y-2991D01*
G01X-14308Y-2990D01*
G01X-14352Y-2989D01*
G01X-14361D01*
G01X-16215D01*
G01X-16224D01*
G01X-16268Y-2990D01*
G01X-16285Y-2991D01*
G01X-16329Y-2994D01*
G01X-16346Y-2996D01*
G01X-16390Y-3001D01*
G01X-16407Y-3003D01*
G01X-16451Y-3011D01*
G01X-16467Y-3014D01*
G01X-16511Y-3023D01*
G01X-16527Y-3027D01*
G01X-16570Y-3038D01*
G01X-16586Y-3043D01*
G01X-16629Y-3056D01*
G01X-16645Y-3062D01*
G01X-16686Y-3077D01*
G01X-16702Y-3083D01*
G01X-16743Y-3101D01*
G01X-16758Y-3107D01*
G01X-16798Y-3127D01*
G01X-16814Y-3134D01*
G01X-16853Y-3155D01*
G01X-16867Y-3164D01*
G01X-16906Y-3187D01*
G01X-16920Y-3195D01*
G01X-16957Y-3220D01*
G01X-16971Y-3230D01*
G01X-17007Y-3256D01*
G01X-17020Y-3266D01*
G01X-17055Y-3294D01*
G01X-17067Y-3305D01*
G01X-17101Y-3335D01*
G01X-17113Y-3346D01*
G01X-17145Y-3377D01*
G01X-17157Y-3389D01*
G01X-17187Y-3422D01*
G01X-17198Y-3434D01*
G01X-17227Y-3468D01*
G01X-17237Y-3481D01*
G01X-17265Y-3517D01*
G01X-17275Y-3530D01*
G01X-17300Y-3567D01*
G01X-17309Y-3581D01*
G01X-17317Y-3593D01*
G01Y-3481D01*
G01X-15985Y-2149D01*
G03X-15694Y-1447I-702J702D01*
G01Y-245D01*
G01Y1872D01*
G01X-14690D01*
G03X-14332Y2230I0J358D01*
G01Y2988D01*
G03X-13656Y3278I-26J993D01*
G01X-13369Y3565D01*
G01X-12303Y4632D01*
G03X-12012Y5334I-702J702D01*
G01Y6701D01*
G01X-11361Y7351D01*
G01X-11170D01*
G03X-11220Y7168I308J-183D01*
G01Y5960D01*
G03X-10862Y5602I358J0D01*
G01X-9161D01*
G03X-8929Y5687I0J358D01*
G01X-7315D01*
G03X-6882Y5866I0J612D01*
G01X-6451Y6298D01*
G03X-6275Y6665I-433J433D01*
G03X-6248Y6720I-309J182D01*
G03X-5913Y6489I335J127D01*
G01X-5313D01*
G03X-4978Y6720I0J358D01*
G03X-4643Y6489I335J127D01*
G01X-4043D01*
G03X-3685Y6847I0J358D01*
G01Y7033D01*
G01X-3223Y7495D01*
G03X-3001Y8031I-536J536D01*
G01Y8077D01*
G03X-3007Y8171I-758J0D01*
G03X-2872Y7967I568J229D01*
G01X-2397Y7492D01*
G03X-1964Y7313I433J433D01*
G01X-37D01*
G01Y7302D01*
G01Y5601D01*
G03X321Y5243I358J0D01*
G01X1529D01*
G03X1886Y5585I0J358D01*
G01X3912D01*
G03X4344Y5765I0J612D01*
G01X4630Y6050D01*
G03X4809Y6483I-433J433D01*
G01Y6562D01*
G03X4832Y6611I-312J176D01*
G03X5167Y6379I335J127D01*
G01X5767D01*
G03X6102Y6611I0J358D01*
G03X6437Y6379I335J127D01*
G01X7037D01*
G03X7395Y6737I0J358D01*
G01Y6961D01*
G03X7495Y7337I-658J376D01*
G01Y8970D01*
G03X7837Y9167I-194J733D01*
G01X8081Y9411D01*
G01X8345Y9147D01*
G03X8881Y8925I536J536D01*
G01X9025D01*
G01Y8900D01*
G03X9383Y8541I358J0D01*
G01X9601D01*
G01X9591Y8532D01*
G01X9560Y8500D01*
G01X9548Y8488D01*
G01X9519Y8454D01*
G01X9508Y8442D01*
G01X9480Y8407D01*
G01X9469Y8394D01*
G01X9443Y8358D01*
G01X9434Y8344D01*
G01X9409Y8307D01*
G01X9400Y8293D01*
G01X9377Y8254D01*
G01X9369Y8240D01*
G01X9348Y8201D01*
G01X9340Y8185D01*
G01X9321Y8145D01*
G01X9314Y8130D01*
G01X9297Y8089D01*
G01X9291Y8073D01*
G01X9275Y8032D01*
G01X9270Y8016D01*
G01X9257Y7973D01*
G01X9252Y7957D01*
G01X9241Y7914D01*
G01X9237Y7898D01*
G01X9227Y7854D01*
G01X9224Y7837D01*
G01X9217Y7794D01*
G01X9215Y7777D01*
G01X9209Y7733D01*
G01X9208Y7716D01*
G01X9205Y7672D01*
G01X9204Y7655D01*
G01X9203Y7610D01*
G01Y7602D01*
G01Y5748D01*
G01Y5739D01*
G01X9204Y5695D01*
G01X9205Y5678D01*
G01X9208Y5634D01*
G01X9209Y5617D01*
G01X9215Y5573D01*
G01X9217Y5556D01*
G01X9224Y5512D01*
G01X9227Y5495D01*
G01X9237Y5452D01*
G01X9241Y5436D01*
G01X9252Y5393D01*
G01X9257Y5377D01*
G01X9270Y5334D01*
G01X9275Y5318D01*
G01X9291Y5276D01*
G01X9297Y5261D01*
G01X9314Y5220D01*
G01X9321Y5204D01*
G01X9340Y5164D01*
G01X9348Y5149D01*
G01X9369Y5110D01*
G01X9371Y5107D01*
G03X9338Y5108I-32J-357D01*
G01X9210D01*
G03X9042Y5127I-168J-739D01*
G03X8875Y5108I0J-758D01*
G01X8666D01*
G03X8308Y4750I0J-358D01*
G01Y4558D01*
G03X8284Y4369I734J-189D01*
G01Y3283D01*
G03X8506Y2747I758J0D01*
G01X9351Y1902D01*
G03X9887Y1680I536J536D01*
G01X12538D01*
G01X12723Y1496D01*
G03X13144Y1283I536J536D01*
G01X12916Y1054D01*
G03X12774Y711I343J-343D01*
G01Y-1323D01*
G01X11544Y-2553D01*
G03X11402Y-2896I343J-343D01*
G01Y-3450D01*
G01X10568D01*
G03X10210Y-3586I0J-540D01*
G03X9703Y-3350I-507J-428D01*
G03X9344Y-3455I0J-663D01*
G01Y-3274D01*
G03X9612Y-3000I-82J349D01*
G03X9963Y-3283I350J75D01*
G01X10769D01*
G03X11127Y-2925I0J358D01*
G01Y-2061D01*
G03X10851Y-1712I-358J0D01*
G01Y-1625D01*
G03X11118Y-1358I-82J349D01*
G01X11215D01*
G03X11512Y-1515I297J201D01*
G01X12412D01*
G03X12770Y-1157I0J358D01*
G01Y-357D01*
G03X12607Y-57I-358J0D01*
G03X12770Y243I-196J300D01*
G01Y1043D01*
G03X12412Y1401I-358J0D01*
G01X11512D01*
G03X11154Y1043I0J-358D01*
G01Y243D01*
G03X11316Y-57I358J0D01*
G03X11154Y-357I196J-300D01*
G01Y-388D01*
G01X11118D01*
G03X10844Y-120I-349J-82D01*
G03X11127Y231I-75J350D01*
G01Y1037D01*
G03X10769Y1395I-358J0D01*
G01X9905D01*
G03X9547Y1037I0J-358D01*
G01Y530D01*
G01X9463Y446D01*
G01Y1031D01*
G03X9105Y1389I-358J0D01*
G01X8205D01*
G03X7847Y1031I0J-358D01*
G01Y231D01*
G03X8009Y-69I358J0D01*
G03X7859Y-277I196J-300D01*
G01X7770D01*
G01X7222Y271D01*
G01Y614D01*
G03X7395Y921I-185J307D01*
G01Y2121D01*
G03X7037Y2479I-358J0D01*
G01X6437D01*
G03X6102Y2247I0J-358D01*
G03X5767Y2479I-335J-127D01*
G01X5167D01*
G03X4832Y2247I0J-358D01*
G03X4497Y2479I-335J-127D01*
G01X3897D01*
G03X3562Y2247I0J-358D01*
G03X3227Y2479I-335J-127D01*
G01X2627D01*
G03X2269Y2121I0J-358D01*
G01Y921D01*
G03X2627Y563I358J0D01*
G01X3227D01*
G03X3562Y794I0J358D01*
G03X3712Y614I335J127D01*
G01Y477D01*
G03X3854Y134I485J0D01*
G01X6424Y-2436D01*
G01Y-3497D01*
G03X6204Y-3450I-220J-493D01*
G01X6048D01*
G03X5385Y-2791I-663J-4D01*
G03X4722Y-3454I0J-663D01*
G01Y-3460D01*
G03X4286Y-3990I104J-530D01*
G03X4394Y-4315I540J0D01*
G03X4286Y-4640I431J-325D01*
G03X4394Y-4965I540J0D01*
G03X4286Y-5290I431J-325D01*
G03X4394Y-5615I540J0D01*
G03X4286Y-5940I431J-325D01*
G01Y-5942D01*
G01X-1364Y2290D02*
G03X-1014Y2007I350J75D01*
G01X-208D01*
G03X150Y2344I0J358D01*
G01X281D01*
G03X629Y2071I348J85D01*
G01X1529D01*
G03X1887Y2429I0J358D01*
G01Y3229D01*
G03X1724Y3529I-358J0D01*
G03X1887Y3829I-196J300D01*
G01Y4629D01*
G03X1529Y4987I-358J0D01*
G01X629D01*
G03X271Y4629I0J-358D01*
G01Y3829D01*
G03X433Y3529I358J0D01*
G03X281Y3314I196J-300D01*
G01X140D01*
G03X-208Y3587I-348J-85D01*
G01X-1014D01*
G03X-1364Y3304I0J-358D01*
G03X-1474Y3494I-350J-75D01*
G03X-1435Y3719I-624J225D01*
G03X-1436Y3758I-663J0D01*
G03X-1418Y3783I-282J221D01*
G03X-1118Y3621I300J196D01*
G01X-318D01*
G03X40Y3979I0J358D01*
G01Y4879D01*
G03X-318Y5237I-358J0D01*
G01X-1118D01*
G03X-1418Y5075I0J-358D01*
G03X-1718Y5237I-300J-196D01*
G01X-2518D01*
G03X-2876Y4879I0J-358D01*
G01Y3979D01*
G03X-2761Y3716I358J0D01*
G03X-2730Y3520I663J3D01*
G03X-2879Y3229I209J-291D01*
G01Y2365D01*
G03X-2521Y2007I358J0D01*
G01X-1715D01*
G03X-1364Y2290I0J358D01*
G01X-3627Y-2134D02*
G03X-3680Y-2145I114J-635D01*
G03X-3643Y-2130I-232J621D01*
G01X-3627Y-2134D01*
G01X19642Y-15000D02*
G02X15000Y-19642I-4642J0D01*
G01X996D01*
G03X1319Y-18800I-935J842D01*
G01Y-17353D01*
G01Y-15842D01*
G01Y-13860D01*
G01Y-13000D01*
G03X1069Y-12247I-1258J0D01*
G01Y-8646D01*
G03X711Y-8288I-358J0D01*
G01X-119D01*
G01X-622Y-7785D01*
G03X-965Y-7643I-343J-343D01*
G01X-1933D01*
G01Y-7642D01*
G03X-1470Y-7010I-201J632D01*
G03X-1648Y-6558I-663J0D01*
G01Y-5644D01*
G03X-1554Y-5309I-551J336D01*
G03X-2085Y-4674I-645J0D01*
G03X-1554Y-4039I-114J635D01*
G03X-2085Y-3404I-645J0D01*
G03X-1554Y-2769I-114J635D01*
G03X-2085Y-2134I-645J0D01*
G03X-1554Y-1499I-114J635D01*
G03X-1742Y-1044I-645J0D01*
G01X-1725D01*
G01X-892Y-1877D01*
G01Y-6045D01*
G03X-749Y-6388I485J0D01*
G01X2396Y-9533D01*
G03X2739Y-9676I343J343D01*
G01X4204D01*
G01X4176Y-9703D01*
G03X4027Y-10065I362J-362D01*
G01Y-11233D01*
G03X4176Y-11595I512J0D01*
G01X4481Y-11900D01*
G03X4722Y-12035I362J362D01*
G03X5077Y-12346I355J47D01*
G01X5877D01*
G03X6177Y-12184I0J358D01*
G03X6477Y-12346I300J196D01*
G01X7277D01*
G03X7635Y-11988I0J358D01*
G01Y-11088D01*
G03X7277Y-10730I-358J0D01*
G01X6477D01*
G03X6177Y-10893I0J-358D01*
G03X6091Y-10802I-300J-196D01*
G03X6116Y-10624I-639J178D01*
G03X6070Y-10381I-663J0D01*
G01X6204D01*
G03X6744Y-9840I0J540D01*
G03X6698Y-9624I-540J0D01*
G03X6965Y-9190I-219J433D01*
G03X6840Y-8865I-485J0D01*
G03X6965Y-8540I-360J325D01*
G03X6936Y-8376I-485J0D01*
G01X7591D01*
G03X7934Y-8233I0J485D01*
G01X8303Y-7864D01*
G01Y-8585D01*
G03X8445Y-8928I485J0D01*
G01X9101Y-9584D01*
G01Y-14104D01*
G03X8833Y-14377I82J-349D01*
G03X8483Y-14094I-350J-75D01*
G01X7676D01*
G03X7322Y-14399I0J-358D01*
G01X6858D01*
G03X6515Y-14541I0J-485D01*
G01X5956Y-15100D01*
G03X5814Y-15443I343J-343D01*
G01Y-16003D01*
G01X5519D01*
G03X5161Y-16361I0J-358D01*
G01Y-17981D01*
G03X5519Y-18339I358J0D01*
G01X7004D01*
G03X7363Y-17981I0J358D01*
G01Y-16361D01*
G03X7004Y-16003I-358J0D01*
G01X6784D01*
G01Y-15644D01*
G01X7059Y-15370D01*
G01X7322D01*
G03X7676Y-15675I354J53D01*
G01X8483D01*
G03X8833Y-15392I0J358D01*
G03X9183Y-15675I350J75D01*
G01X9989D01*
G03X10348Y-15316I0J358D01*
G01Y-14452D01*
G03X10071Y-14104I-358J0D01*
G01Y-10054D01*
G03X10568Y-10381I496J213D01*
G01X11946D01*
G03X12486Y-9840I0J540D01*
G03X12460Y-9676I-540J0D01*
G01X12755D01*
G03X13098Y-9533I0J485D01*
G01X13602Y-9030D01*
G03X13744Y-8687I-343J343D01*
G01Y-6069D01*
G03X13800Y-6073I56J354D01*
G01X14628D01*
G03X15394Y-6333I766J998D01*
G01X18682D01*
G03X18796Y-6338I114J1253D01*
G03X19642Y-6011I0J1258D01*
G01Y-6629D01*
G03X19600Y-6627I-42J-356D01*
G01X17400D01*
G03X17042Y-6985I0J-358D01*
G01Y-8255D01*
G03X17400Y-8613I358J0D01*
G01X19600D01*
G03X19642Y-8611I0J358D01*
G01Y-15000D01*
G01X13542Y-15500D02*
G03X15500Y-17458I1958J0D01*
G03X17458Y-15500I0J1958D01*
G03X15500Y-13542I-1958J0D01*
G03X13542Y-15500I0J-1958D01*
G01X8146Y-17981D02*
G03X8504Y-18339I358J0D01*
G01X9989D01*
G03X10348Y-17981I0J358D01*
G01Y-16361D01*
G03X9989Y-16003I-358J0D01*
G01X8504D01*
G03X8146Y-16361I0J-358D01*
G01Y-17981D01*
G01X13373Y7963D02*
G01X13204Y7794D01*
G01Y8119D01*
G01X13627Y8541D01*
G01X13883D01*
G03X14241Y8900I0J358D01*
G01Y10600D01*
G03X13883Y10958I-358J0D01*
G01X12783D01*
G03X12425Y10600I0J-358D01*
G01Y9484D01*
G01X11910Y8969D01*
G03X11688Y8433I536J-536D01*
G01Y8172D01*
G01X11682Y8185D01*
G01X11674Y8201D01*
G01X11653Y8240D01*
G01X11645Y8254D01*
G01X11622Y8293D01*
G01X11613Y8307D01*
G01X11588Y8344D01*
G01X11579Y8358D01*
G01X11552Y8394D01*
G01X11542Y8407D01*
G01X11514Y8442D01*
G01X11503Y8454D01*
G01X11473Y8488D01*
G01X11462Y8500D01*
G01X11431Y8532D01*
G01X11419Y8543D01*
G01X11386Y8574D01*
G01X11374Y8585D01*
G01X11340Y8614D01*
G01X11327Y8624D01*
G01X11291Y8652D01*
G01X11278Y8662D01*
G01X11241Y8687D01*
G01X11227Y8696D01*
G01X11190Y8720D01*
G01X11175Y8729D01*
G01X11136Y8751D01*
G01X11122Y8759D01*
G01X11082Y8779D01*
G01X11067Y8786D01*
G01X11026Y8804D01*
G01X11011Y8811D01*
G01X10969Y8827D01*
G01X10953Y8833D01*
G01X10911Y8847D01*
G01X10895Y8852D01*
G01X10853Y8865D01*
G01X10840Y8868D01*
G03X10841Y8900I-357J32D01*
G01Y10600D01*
G03X10483Y10958I-358J0D01*
G01X9383D01*
G03X9040Y10701I0J-358D01*
G01Y13361D01*
G03X8682Y13719I-358J0D01*
G01X7482D01*
G03X7123Y13361I0J-358D01*
G01Y10597D01*
G01X6987Y10461D01*
G01X6945D01*
G03X6762Y10511I-183J-308D01*
G01X5962D01*
G03X5662Y10348I0J-358D01*
G03X5362Y10511I-300J-196D01*
G01X4562D01*
G03X4204Y10153I0J-358D01*
G01Y9253D01*
G03X4220Y9147I358J0D01*
G01X3606D01*
G01X3278Y9475D01*
G03X2845Y9655I-433J-433D01*
G01X1069D01*
G01Y12059D01*
G03X1319Y12812I-1008J753D01*
G01Y15190D01*
G01Y16890D01*
G01Y18593D01*
G03X756Y19642I-1258J0D01*
G01X15000D01*
G02X19642Y15000I0J-4642D01*
G01Y8611D01*
G03X19600Y8613I-42J-356D01*
G01X19568D01*
G03X18796Y8878I-772J-993D01*
G01X17272D01*
G01X15520D01*
G03X14359Y8105I0J-1258D01*
G01X13716D01*
G03X13373Y7963I0J-485D01*
G01X15500Y13542D02*
G03X17458Y15500I0J1958D01*
G03X15500Y17458I-1958J0D01*
G03X13542Y15500I0J-1958D01*
G03X15500Y13542I1958J0D01*
G01X8682Y14842D02*
G03X9040Y15201I0J358D01*
G01Y18701D01*
G03X8682Y19059I-358J0D01*
G01X7482D01*
G03X7123Y18701I0J-358D01*
G01Y15201D01*
G03X7482Y14842I358J0D01*
G01X8682D01*
G54D10*
G01X-15288Y-4297D02*
G01X-15288Y-5506D01*
G54D11*
G01X-8493Y-7111D02*
G01X-9156Y-7111D01*
G54D12*
G01X-8493Y-7111D02*
G01X-8493Y-7802D01*
G01X-8493Y-7111D02*
G01X-8493Y-6420D01*
G54D13*
G01X-10412Y-6908D02*
G01X-10412Y-7567D01*
G54D15*
G01X-10412Y-6908D02*
G01X-9703Y-6908D01*
G01X-10412Y-6908D02*
G01X-11121Y-6908D01*
G54D16*
G01X-15290Y9320D02*
G01X-15290Y7311D01*
G01X-15290Y9320D02*
G01X-15290Y11329D01*
G54D17*
G01X-15290Y9320D02*
G01X-16150Y9320D01*
G01X-15290Y9320D02*
G01X-14431Y9320D01*
G54D18*
G01X-8254Y-1499D02*
G01X-8254Y-953D01*
G54D19*
G01X-8254Y-1499D02*
G01X-9457Y-1499D01*
G01X-8254Y-1499D02*
G01X-7051Y-1499D01*
G54D16*
G01X-8153Y1630D02*
G01X-8712Y1630D01*
G54D20*
G01X-8153Y1630D02*
G01X-8153Y2489D01*
G01X-8153Y1630D02*
G01X-8153Y771D01*
G54D13*
G01X-10041Y9844D02*
G01X-10041Y10503D01*
G54D15*
G01X-10041Y9844D02*
G01X-9332Y9844D01*
G01X-10041Y9844D02*
G01X-10750Y9844D01*
G54D19*
G01X-2856Y-4039D02*
G01X-4059Y-4039D01*
G01X-2856Y-4039D02*
G01X-1653Y-4039D01*
G54D13*
G01X3333Y-829D02*
G01X3992Y-829D01*
G54D15*
G01X3333Y-829D02*
G01X3333Y-120D01*
G54D13*
G01X4962Y9703D02*
G01X4303Y9703D01*
G54D15*
G01X4962Y9703D02*
G01X4962Y10412D01*
G54D13*
G01X-718Y4429D02*
G01X-59Y4429D01*
G54D15*
G01X-718Y4429D02*
G01X-718Y3720D01*
G01X-718Y4429D02*
G01X-718Y5138D01*
G54D16*
G01X2927Y1521D02*
G01X2368Y1521D01*
G54D20*
G01X2927Y1521D02*
G01X2927Y2380D01*
G01X2927Y1521D02*
G01X2927Y662D01*
G54D13*
G01X1079Y4229D02*
G01X1079Y4888D01*
G54D15*
G01X1079Y4229D02*
G01X1788Y4229D01*
G01X1079Y4229D02*
G01X370Y4229D01*
G54D13*
G01X3233Y-4121D02*
G01X3892Y-4121D01*
G54D15*
G01X3233Y-4121D02*
G01X3233Y-4830D01*
G01X3233Y-4121D02*
G01X3233Y-3412D01*
G54D16*
G01X8082Y16951D02*
G01X8082Y14942D01*
G01X8082Y16951D02*
G01X8082Y18960D01*
G54D17*
G01X8082Y16951D02*
G01X7223Y16951D01*
G01X8082Y16951D02*
G01X8941Y16951D01*
G54D21*
G01X9247Y-17171D02*
G01X10249Y-17171D01*
G01X9247Y-17171D02*
G01X8245Y-17171D01*
G54D22*
G01X9247Y-17171D02*
G01X9247Y-18240D01*
G01X9247Y-17171D02*
G01X9247Y-16102D01*
G54D13*
G01X8655Y631D02*
G01X8655Y1290D01*
G54D15*
G01X8655Y631D02*
G01X9364Y631D01*
G01X8655Y631D02*
G01X7946Y631D01*
G54D13*
G01X6877Y-11538D02*
G01X7536Y-11538D01*
G54D15*
G01X6877Y-11538D02*
G01X6877Y-10829D01*
G01X6877Y-11538D02*
G01X6877Y-12247D01*
G54D10*
G01X9563Y6675D02*
G01X9302Y6675D01*
G54D23*
G01X11257Y-9840D02*
G01X12387Y-9840D01*
G54D13*
G01X11962Y643D02*
G01X11962Y1302D01*
G54D15*
G01X11962Y643D02*
G01X12671Y643D01*
G01X11962Y643D02*
G01X11253Y643D01*
G54D24*
G01X18500Y-7620D02*
G01X18500Y-8514D01*
G54D25*
G01X18500Y-7620D02*
G01X17141Y-7620D01*
G04 Copper End*

G04 Pad Start*
G54D26*
G01X-12562Y-9185D03*
G54D27*
G01X-17370Y-9204D03*
G54D28*
G01X6362Y9703D03*
G01X4962Y9703D03*
G54D29*
G01X2927Y1521D03*
G01X4197Y1521D03*
G01X5467Y1521D03*
G01X6737Y1521D03*
G01X6737Y7337D03*
G01X5467Y7337D03*
G01X4197Y7337D03*
G01X2927Y7337D03*
G54D30*
G01X4832Y4429D03*
G54D29*
G01X-8153Y1630D03*
G01X-6883Y1630D03*
G01X-5613Y1630D03*
G01X-4343Y1630D03*
G01X-4343Y7447D03*
G01X-5613Y7447D03*
G01X-6883Y7447D03*
G01X-8153Y7447D03*
G54D30*
G01X-6248Y4539D03*
G54D31*
G01X-2118Y2797D03*
G01X-611Y2797D03*
G54D28*
G01X6877Y-11538D03*
G01X5477Y-11538D03*
G54D32*
G01X10366Y-2493D03*
G01X8859Y-2493D03*
G54D33*
G01X10337Y634D03*
G01X10337Y-873D03*
G54D34*
G01X8655Y-769D03*
G01X8655Y631D03*
G01X11962Y-757D03*
G01X11962Y643D03*
G54D31*
G01X1823Y-5760D03*
G01X3330Y-5760D03*
G54D32*
G01X3336Y-2489D03*
G01X1830Y-2489D03*
G54D35*
G01X1933Y-829D03*
G01X3333Y-829D03*
G01X1833Y-4121D03*
G01X3233Y-4121D03*
G54D36*
G01X6262Y-17171D03*
G01X9247Y-17171D03*
G54D37*
G01X11257Y-9840D03*
G01X11257Y-9190D03*
G01X11257Y-8540D03*
G01X11257Y-7890D03*
G01X11257Y-7240D03*
G01X11257Y-6590D03*
G01X11257Y-5940D03*
G01X11257Y-5290D03*
G01X11257Y-4640D03*
G01X11257Y-3990D03*
G01X5515Y-9840D03*
G01X5515Y-9190D03*
G01X5515Y-8540D03*
G01X5515Y-7890D03*
G01X5515Y-7240D03*
G01X5515Y-6590D03*
G01X5515Y-5940D03*
G01X5515Y-5290D03*
G01X5515Y-4640D03*
G01X5515Y-3990D03*
G54D35*
G01X-2118Y4429D03*
G01X-718Y4429D03*
G54D34*
G01X1079Y2829D03*
G01X1079Y4229D03*
G01X-10041Y8444D03*
G01X-10041Y9844D03*
G54D38*
G01X61Y10904D03*
G01X-2439Y10904D03*
G54D39*
G01X3261Y17704D03*
G01X-10639Y17704D03*
G54D38*
G01X-4939Y10904D03*
G01X-7439Y10904D03*
G54D40*
G01X-7439Y-10896D03*
G01X-4939Y-10896D03*
G54D41*
G01X-10639Y-17696D03*
G01X3261Y-17696D03*
G54D40*
G01X-2439Y-10896D03*
G01X61Y-10896D03*
G54D42*
G01X-15290Y9320D03*
G01X-15290Y3980D03*
G01X8082Y16951D03*
G01X8082Y11611D03*
G54D43*
G01X13333Y9750D03*
G01X9933Y9750D03*
G36*
G01X11461Y7602D02*
G01X11461Y5748D01*
G01X11460Y5703D01*
G01X11457Y5659D01*
G01X11451Y5615D01*
G01X11444Y5571D01*
G01X11435Y5527D01*
G01X11423Y5484D01*
G01X11410Y5441D01*
G01X11395Y5400D01*
G01X11377Y5359D01*
G01X11358Y5318D01*
G01X11337Y5279D01*
G01X11314Y5241D01*
G01X11290Y5204D01*
G01X11263Y5168D01*
G01X11235Y5133D01*
G01X11206Y5100D01*
G01X11175Y5068D01*
G01X11142Y5038D01*
G01X11108Y5009D01*
G01X11073Y4982D01*
G01X11036Y4956D01*
G01X10999Y4933D01*
G01X10960Y4911D01*
G01X10920Y4890D01*
G01X10841Y4872D01*
G01Y3175D01*
G01X10181D01*
G01Y4872D01*
G01X10102Y4890D01*
G01X10062Y4911D01*
G01X10023Y4933D01*
G01X9985Y4956D01*
G01X9949Y4982D01*
G01X9914Y5009D01*
G01X9880Y5038D01*
G01X9847Y5068D01*
G01X9816Y5100D01*
G01X9786Y5133D01*
G01X9758Y5168D01*
G01X9732Y5204D01*
G01X9707Y5241D01*
G01X9684Y5279D01*
G01X9663Y5318D01*
G01X9644Y5359D01*
G01X9627Y5400D01*
G01X9612Y5441D01*
G01X9598Y5484D01*
G01X9587Y5527D01*
G01X9577Y5571D01*
G01X9570Y5615D01*
G01X9565Y5659D01*
G01X9562Y5703D01*
G01X9561Y5748D01*
G01Y7602D01*
G01X9562Y7646D01*
G01X9565Y7691D01*
G01X9570Y7735D01*
G01X9577Y7779D01*
G01X9587Y7823D01*
G01X9598Y7866D01*
G01X9612Y7908D01*
G01X9627Y7950D01*
G01X9644Y7991D01*
G01X9663Y8031D01*
G01X9684Y8070D01*
G01X9707Y8109D01*
G01X9732Y8146D01*
G01X9758Y8182D01*
G01X9786Y8216D01*
G01X9816Y8250D01*
G01X9847Y8281D01*
G01X9880Y8312D01*
G01X9914Y8341D01*
G01X9949Y8368D01*
G01X9985Y8393D01*
G01X10023Y8417D01*
G01X10062Y8439D01*
G01X10102Y8459D01*
G01X10142Y8477D01*
G01X10184Y8494D01*
G01X10226Y8508D01*
G01X10269Y8521D01*
G01X10312Y8531D01*
G01X10356Y8539D01*
G01X10400Y8545D01*
G01X10444Y8550D01*
G01X10489Y8552D01*
G01X10533D01*
G01X10578Y8550D01*
G01X10622Y8545D01*
G01X10666Y8539D01*
G01X10710Y8531D01*
G01X10753Y8521D01*
G01X10796Y8508D01*
G01X10838Y8494D01*
G01X10880Y8477D01*
G01X10920Y8459D01*
G01X10960Y8439D01*
G01X10999Y8417D01*
G01X11036Y8393D01*
G01X11073Y8368D01*
G01X11108Y8341D01*
G01X11142Y8312D01*
G01X11175Y8281D01*
G01X11206Y8250D01*
G01X11235Y8216D01*
G01X11263Y8182D01*
G01X11290Y8146D01*
G01X11314Y8109D01*
G01X11337Y8070D01*
G01X11358Y8031D01*
G01X11377Y7991D01*
G01X11395Y7950D01*
G01X11410Y7908D01*
G01X11423Y7866D01*
G01X11435Y7823D01*
G01X11444Y7779D01*
G01X11451Y7735D01*
G01X11457Y7691D01*
G01X11460Y7646D01*
G01X11461Y7602D01*
G37*
G54D44*
G01X12002Y3963D03*
G01X9002Y3963D03*
G36*
G01X-16215Y-3347D02*
G01X-14361Y-3347D01*
G01X-14316Y-3348D01*
G01X-14272Y-3352D01*
G01X-14228Y-3357D01*
G01X-14184Y-3364D01*
G01X-14140Y-3373D01*
G01X-14097Y-3385D01*
G01X-14055Y-3398D01*
G01X-14013Y-3413D01*
G01X-13972Y-3431D01*
G01X-13931Y-3450D01*
G01X-13892Y-3471D01*
G01X-13854Y-3494D01*
G01X-13817Y-3518D01*
G01X-13781Y-3545D01*
G01X-13746Y-3573D01*
G01X-13713Y-3602D01*
G01X-13681Y-3634D01*
G01X-13651Y-3666D01*
G01X-13622Y-3700D01*
G01X-13595Y-3735D01*
G01X-13569Y-3772D01*
G01X-13546Y-3810D01*
G01X-13524Y-3848D01*
G01X-13503Y-3888D01*
G01X-13485Y-3967D01*
G01X-11788D01*
G01Y-4627D01*
G01X-13485D01*
G01X-13503Y-4707D01*
G01X-13524Y-4746D01*
G01X-13546Y-4785D01*
G01X-13569Y-4823D01*
G01X-13595Y-4859D01*
G01X-13622Y-4895D01*
G01X-13651Y-4929D01*
G01X-13681Y-4961D01*
G01X-13713Y-4992D01*
G01X-13746Y-5022D01*
G01X-13781Y-5050D01*
G01X-13817Y-5076D01*
G01X-13854Y-5101D01*
G01X-13892Y-5124D01*
G01X-13931Y-5145D01*
G01X-13972Y-5164D01*
G01X-14013Y-5181D01*
G01X-14055Y-5197D01*
G01X-14097Y-5210D01*
G01X-14140Y-5221D01*
G01X-14184Y-5231D01*
G01X-14228Y-5238D01*
G01X-14272Y-5243D01*
G01X-14316Y-5246D01*
G01X-14361Y-5247D01*
G01X-16215D01*
G01X-16260Y-5246D01*
G01X-16304Y-5243D01*
G01X-16348Y-5238D01*
G01X-16392Y-5231D01*
G01X-16436Y-5221D01*
G01X-16479Y-5210D01*
G01X-16521Y-5197D01*
G01X-16563Y-5181D01*
G01X-16604Y-5164D01*
G01X-16644Y-5145D01*
G01X-16684Y-5124D01*
G01X-16722Y-5101D01*
G01X-16759Y-5076D01*
G01X-16795Y-5050D01*
G01X-16829Y-5022D01*
G01X-16863Y-4992D01*
G01X-16895Y-4961D01*
G01X-16925Y-4929D01*
G01X-16954Y-4895D01*
G01X-16981Y-4859D01*
G01X-17006Y-4823D01*
G01X-17030Y-4785D01*
G01X-17052Y-4746D01*
G01X-17072Y-4707D01*
G01X-17091Y-4666D01*
G01X-17107Y-4625D01*
G01X-17121Y-4582D01*
G01X-17134Y-4540D01*
G01X-17144Y-4496D01*
G01X-17152Y-4453D01*
G01X-17158Y-4408D01*
G01X-17163Y-4364D01*
G01X-17165Y-4320D01*
G01Y-4275D01*
G01X-17163Y-4231D01*
G01X-17158Y-4186D01*
G01X-17152Y-4142D01*
G01X-17144Y-4098D01*
G01X-17134Y-4055D01*
G01X-17121Y-4012D01*
G01X-17107Y-3970D01*
G01X-17091Y-3929D01*
G01X-17072Y-3888D01*
G01X-17052Y-3848D01*
G01X-17030Y-3810D01*
G01X-17006Y-3772D01*
G01X-16981Y-3735D01*
G01X-16954Y-3700D01*
G01X-16925Y-3666D01*
G01X-16895Y-3634D01*
G01X-16863Y-3602D01*
G01X-16829Y-3573D01*
G01X-16795Y-3545D01*
G01X-16759Y-3518D01*
G01X-16722Y-3494D01*
G01X-16684Y-3471D01*
G01X-16644Y-3450D01*
G01X-16604Y-3431D01*
G01X-16563Y-3413D01*
G01X-16521Y-3398D01*
G01X-16479Y-3385D01*
G01X-16436Y-3373D01*
G01X-16392Y-3364D01*
G01X-16348Y-3357D01*
G01X-16304Y-3352D01*
G01X-16260Y-3348D01*
G01X-16215Y-3347D01*
G37*
G54D45*
G01X-12576Y-2806D03*
G01X-12576Y-5806D03*
G54D31*
G01X-5427Y-7126D03*
G01X-3920Y-7126D03*
G54D33*
G01X-10460Y-2244D03*
G01X-10460Y-3751D03*
G54D46*
G01X-10011Y3606D03*
G01X-10011Y6564D03*
G54D47*
G01X-2033Y6452D03*
G01X925Y6452D03*
G54D48*
G01X-2856Y-5309D03*
G01X-2856Y-4039D03*
G01X-2856Y-2769D03*
G01X-2856Y-1499D03*
G01X-8254Y-5309D03*
G01X-8254Y-4039D03*
G01X-8254Y-2769D03*
G01X-8254Y-1499D03*
G54D43*
G01X-13287Y-245D03*
G01X-16687Y-245D03*
G54D31*
G01X-8493Y-7111D03*
G01X-6987Y-7111D03*
G54D34*
G01X-10412Y-6908D03*
G01X-10412Y-5508D03*
G54D32*
G01X9586Y-14884D03*
G01X8080Y-14884D03*
G54D49*
G01X18500Y7620D03*
G01X14900Y5080D03*
G01X18500Y2540D03*
G01X14900Y0D03*
G01X14900Y-5080D03*
G01X18500Y-2540D03*
G01X18500Y-7620D03*
G04 Pad End*

G04 Via Start*
G54D50*
G01X9703Y-4013D03*
G01X9652Y-4978D03*
G01X-635Y2705D03*
G01X7518Y-4572D03*
G01X4318Y-6604D03*
G01X9601Y-5893D03*
G01X7264Y-7214D03*
G01X-2134Y-7010D03*
G01X-4115Y-2845D03*
G01X9720Y-8084D03*
G01X5385Y-3454D03*
G01X-3912Y-1524D03*
G01X13259Y2896D03*
G01X13259Y2032D03*
G01X4843Y-10624D03*
G01X5453Y-10624D03*
G01X-7439Y-13954D03*
G01X-7439Y-15889D03*
G01X-7439Y-18948D03*
G01X-4939Y-18988D03*
G01X-4939Y-15842D03*
G01X-4939Y-13907D03*
G01X-4939Y-17400D03*
G01X-7439Y-17400D03*
G01X-2439Y-13860D03*
G01X-2439Y-18999D03*
G01X-2439Y-15889D03*
G01X-2439Y-17353D03*
G01X61Y-13860D03*
G01X61Y-15842D03*
G01X61Y-17353D03*
G01X61Y-18948D03*
G01X-7439Y15169D03*
G01X-4939Y15169D03*
G01X-2439Y15169D03*
G01X61Y15190D03*
G01X61Y18593D03*
G01X61Y16890D03*
G01X-2439Y16869D03*
G01X-4939Y16848D03*
G01X-7439Y16869D03*
G01X-4939Y18593D03*
G01X-2439Y18593D03*
G01X61Y12812D03*
G01X-2439Y12812D03*
G01X-4939Y12812D03*
G01X-7439Y12812D03*
G01X-4343Y7447D03*
G01X-3759Y8077D03*
G01X6737Y7337D03*
G01X6743Y8406D03*
G01X-11137Y8344D03*
G01X-13005Y7112D03*
G01X-14072Y4267D03*
G01X8081Y10483D03*
G01X-15290Y3980D03*
G01X8081Y12623D03*
G01X-7417Y-9195D03*
G01X-12562Y-9185D03*
G01X-10246Y-9195D03*
G01X-10719Y-14275D03*
G01X3150Y-14275D03*
G01X5537Y4928D03*
G01X3983Y4928D03*
G01X-5480Y4934D03*
G01X-7074Y4934D03*
G01X-7061Y3912D03*
G01X-5486Y3912D03*
G01X4025Y4023D03*
G01X5556Y4023D03*
G01X10516Y7518D03*
G01X10566Y5842D03*
G01X-2118Y2797D03*
G01X-2098Y3719D03*
G01X7976Y-8585D03*
G01X-762Y-7010D03*
G01X-7439Y18593D03*
G01X18796Y7620D03*
G01X18796Y5029D03*
G01X18796Y2540D03*
G01X18796Y0D03*
G01X18796Y-2540D03*
G01X18796Y-5080D03*
G01X18796Y-7620D03*
G01X17272Y7620D03*
G01X17272Y5029D03*
G01X17272Y2540D03*
G01X17272Y0D03*
G01X17323Y-2540D03*
G01X17323Y-5080D03*
G01X17323Y-7620D03*
G01X18593Y11989D03*
G01X12700Y18694D03*
G01X-12294Y18847D03*
G01X-18542Y11532D03*
G01X-12344Y11481D03*
G01X12703Y12006D03*
G01X17628Y-11481D03*
G01X10516Y-11684D03*
G01X11481Y-18644D03*
G01X-11938Y-18999D03*
G01X-12090Y-11633D03*
G01X-18796Y-11582D03*
G01X7010Y-12598D03*
G01X3150Y-11887D03*
G01X-15037Y-9754D03*
G01X-15037Y406D03*
G01X-8230Y51D03*
G01X-9957Y10566D03*
G01X-4928Y-12141D03*
G01X4318Y-18745D03*
G01X5131Y11379D03*
G01X5283Y15646D03*
G01X10363Y15646D03*
G01X15443Y-9754D03*
G01X15443Y10566D03*
G01X-4928Y-10312D03*
G01X-14681Y-4267D03*
G01X-10719Y2235D03*
G01X-18591Y4426D03*
G01X2743Y14834D03*
G01X-10008Y14935D03*
G01X-16764Y7620D03*
G01X-16490Y-4250D03*
G01X15520Y7620D03*
G01X15443Y5029D03*
G01X15430Y2540D03*
G01X15450Y0D03*
G01X15414Y-2540D03*
G01X15394Y-5075D03*
G01X15430Y-7631D03*
G01X4470Y-1270D03*
G04 Via End*

G04 Track Start*
G54D51*
G01X1933Y-829D02*
G01X3336Y-2232D01*
G01Y-2489D01*
G01X-8254Y-2769D02*
G01X-9935Y-2769D01*
G01X-10460Y-2244D01*
G01X-6987Y-7111D02*
G01X-5442Y-7111D01*
G01X-5427Y-7126D01*
G01X-5486Y-7066D02*
G01X-5442Y-7111D01*
G01X-8254Y-4039D02*
G01X-6833Y-4039D01*
G01X-5486Y-5385D01*
G01Y-7066D01*
G01X-8254Y-2769D02*
G01X-7137Y-2769D01*
G01X-4521Y-5385D01*
G01Y-6525D01*
G01X-3920Y-7126D01*
G01X-5427Y-7126D02*
G01X-4577Y-7976D01*
G01X-3658D01*
G01X-2439Y-9194D01*
G01X-3920Y-7126D02*
G01X-3136Y-7126D01*
G01X-2134Y-8128D02*
G01X-965Y-8128D01*
G01X61Y-9154D01*
G01Y-10896D01*
G01X-3136Y-7126D02*
G01X-2134Y-8128D01*
G01X1079Y2829D02*
G01X-579Y2829D01*
G01X-611Y2797D01*
G01X8080Y-14884D02*
G01X6858Y-14884D01*
G01X6299Y-15443D01*
G01Y-17134D01*
G01X6262Y-17171D01*
G01X6800Y-5290D02*
G01X5515Y-5290D01*
G01X7518Y-4572D02*
G01X6800Y-5290D01*
G01X9653Y-4979D02*
G01X9964Y-5290D01*
G01X11257D01*
G01X9649Y-5940D02*
G01X11257Y-5940D01*
G01X9601Y-5893D02*
G01X9649Y-5940D01*
G01X11257Y-7890D02*
G01X9913Y-7890D01*
G01X9720Y-8084D01*
G01X-3886Y-1499D02*
G01X-2856Y-1499D01*
G01X-3912Y-1524D02*
G01X-3886Y-1499D01*
G54D52*
G01X-5613Y7447D02*
G01X-5613Y8509D01*
G01X-4939Y9183D01*
G01X-6883Y7447D02*
G01X-6883Y6731D01*
G01X-7315Y6299D01*
G01X-9747D01*
G01X-10011Y6564D01*
G01X-8153Y7447D02*
G01X-8153Y8407D01*
G01X-7439Y9122D01*
G01X4197Y7337D02*
G01X4197Y6483D01*
G01X3912Y6198D01*
G01X1179D01*
G01X925Y6452D01*
G01X-2439Y8400D02*
G01X-1964Y7925D01*
G01X2339Y7925D02*
G01X2927Y7337D01*
G01X-1964Y7925D02*
G01X2339Y7925D01*
G01X-718Y4429D02*
G01X879Y4429D01*
G01X1079Y4229D01*
G01X5453Y-10624D02*
G01X5477Y-10648D01*
G01Y-11538D01*
G54D53*
G01X5453Y-10624D02*
G01X5515Y-10562D01*
G01Y-9840D01*
G01X4538Y-10065D02*
G01X4763Y-9840D01*
G01X5515D01*
G01X4538Y-11233D02*
G01X4843Y-11538D01*
G01X5477D01*
G54D52*
G01X-8254Y-5309D02*
G01X-10212Y-5309D01*
G01X-10412Y-5508D01*
G01X-10653Y-5749D01*
G01X-12830D01*
G01X-12830Y-2749D02*
G01X-12830Y-702D01*
G01X-13287Y-245D01*
G54D54*
G01X-2439Y-10676D02*
G01X-2439Y-10896D01*
G54D51*
G01X-2439Y-9194D02*
G01X-2439Y-10676D01*
G54D52*
G01X-7439Y9122D02*
G01X-7439Y10904D01*
G54D54*
G01X-4939Y10664D02*
G01X-4939Y10904D01*
G54D52*
G01X-4939Y9183D02*
G01X-4939Y10664D01*
G54D54*
G01X-2439Y10349D02*
G01X-2439Y10904D01*
G54D52*
G01X-2439Y10349D02*
G01X-2439Y8400D01*
G54D54*
G01X-7439Y10904D02*
G01X-7439Y12812D01*
G54D55*
G01X-3759Y8077D02*
G01X-3759Y8031D01*
G01X-4343Y7447D01*
G01X6737Y9328D02*
G01X6362Y9703D01*
G01X6737Y7337D02*
G01X6737Y9328D01*
G01X8081Y10483D02*
G01X7301Y9703D01*
G01X6362D01*
G54D54*
G01X-10041Y8444D02*
G01X-11037Y8444D01*
G01X-11137Y8344D01*
G01X-13005Y7112D02*
G01X-11773Y8344D01*
G01X-11137D01*
G01X-13005Y7112D02*
G01X-13005Y5334D01*
G01X-14072Y4267D01*
G01X-14358Y3980D01*
G01X-15290D01*
G01X-16687Y2584D01*
G01Y-245D01*
G01X-7417Y-9195D02*
G01X-10246Y-9195D01*
G01X-10246Y-9195D02*
G01X-12553Y-9195D01*
G01X-12562Y-9185D01*
G54D52*
G01X-10412Y-5508D02*
G01X-10412Y-3799D01*
G01X-10460Y-3751D01*
G01X-8493Y-7111D02*
G01X-8696Y-6908D01*
G01X-10412D01*
G01X-2118Y2797D02*
G01X-2118Y4429D01*
G54D56*
G01X61Y-15842D02*
G01X61Y-17353D01*
G01Y-18800D01*
G01X-2439Y-15889D02*
G01X-2439Y-17353D01*
G01Y-18800D01*
G01X-4939Y-15842D02*
G01X-4939Y-17400D01*
G01Y-18800D01*
G01X-7439Y-15889D02*
G01X-7439Y-17400D01*
G01Y-18800D01*
G54D52*
G01X5467Y7337D02*
G01X5467Y8056D01*
G01X4988Y8534D01*
G01X3353D01*
G01X2845Y9042D01*
G01X569D01*
G01X61Y9550D01*
G01Y10507D01*
G54D56*
G01X-7439Y12812D02*
G01X-7439Y15169D01*
G01Y16869D01*
G01Y18593D01*
G01X-4939Y12812D02*
G01X-4939Y15169D01*
G01Y16848D01*
G01Y18593D01*
G01X-2439Y12812D02*
G01X-2439Y15169D01*
G01Y16869D01*
G01Y18593D01*
G01X61Y12812D02*
G01X61Y15190D01*
G01Y16890D01*
G01Y18593D01*
G54D54*
G01X-4928Y-10312D02*
G01X-4928Y-10603D01*
G54D51*
G01X-5639Y1605D02*
G01X-5613Y1630D01*
G01X-5639Y864D02*
G01X-5639Y1605D01*
G01X-6883Y432D02*
G01X-6883Y1630D01*
G01X-4775Y0D02*
G01X-5639Y864D01*
G01X-1524Y-559D02*
G01X-5893Y-559D01*
G01X-6883Y432D01*
G01X-4343Y1630D02*
G01X-4343Y737D01*
G01X-4216Y610D01*
G01X10337Y634D02*
G01X8934Y-769D01*
G01X8655D01*
G01X10337Y-873D02*
G01X11846Y-873D01*
G01X11962Y-757D01*
G01X-406Y-1676D02*
G01X-1524Y-559D01*
G01X6480Y-9190D02*
G01X5515Y-9190D01*
G01X6480Y-8540D02*
G01X5515Y-8540D01*
G54D53*
G01X4538Y-10065D02*
G01X4538Y-11233D01*
G54D51*
G01X-4216Y610D02*
G01X-152Y610D01*
G01X1286Y-829D01*
G01X1933D01*
G01X406Y-1473D02*
G01X-1067Y0D01*
G01X-4775D01*
G01X11257Y-8540D02*
G01X12338Y-8540D01*
G01X12700Y-8179D01*
G01X11257Y-9190D02*
G01X12755Y-9190D01*
G01X13259Y-8687D01*
G01X11257Y-7240D02*
G01X9321Y-7240D01*
G01X8788Y-7772D01*
G01Y-8585D01*
G01X9586Y-9383D01*
G01Y-14884D01*
G01X13259Y-8687D02*
G01X13259Y-4064D01*
G01X14783Y-2540D01*
G01X10337Y-873D02*
G01X10366Y-902D01*
G01Y-2493D01*
G01X13716Y7620D02*
G01X13360Y7264D01*
G01Y4166D01*
G01X6737Y1521D02*
G01X6737Y70D01*
G01X7569Y-762D01*
G01X8648D01*
G01X8655Y-769D01*
G01X9113Y-6590D02*
G01X11257Y-6590D01*
G54D55*
G01X13259Y2896D02*
G01X13259Y2032D01*
G54D51*
G01X5467Y1521D02*
G01X5436Y1489D01*
G01Y356D01*
G01X7722Y-1930D01*
G01X15520Y7620D02*
G01X13716Y7620D01*
G01X14783Y-2540D02*
G01X15414Y-2540D01*
G54D56*
G01X18796Y7620D02*
G01X17272Y7620D01*
G01X15520D01*
G01X15443Y5029D02*
G01X17272Y5029D01*
G01X18796D01*
G01X15430Y2540D02*
G01X17272Y2540D01*
G01X18500D01*
G01X15450Y0D02*
G01X17272Y0D01*
G01X18796D01*
G01X15414Y-2540D02*
G01X17323Y-2540D01*
G01X18500D01*
G01X18791Y-5075D02*
G01X18796Y-5080D01*
G01X15394Y-5075D02*
G01X18791Y-5075D01*
G01X18489Y-7631D02*
G01X18500Y-7620D01*
G01X15430Y-7631D02*
G01X18489Y-7631D01*
G01X-7439Y-13000D02*
G01X-7439Y-13954D01*
G01Y-15889D01*
G54D54*
G01X-7439Y-13000D02*
G01X-7439Y-10896D01*
G54D56*
G01X-4939Y-13000D02*
G01X-4939Y-13907D01*
G01Y-15842D01*
G01X-2439Y-13000D02*
G01X-2439Y-13860D01*
G01Y-15889D01*
G54D54*
G01X-2439Y-10896D02*
G01X-2439Y-13000D01*
G54D56*
G01X61Y-13000D02*
G01X61Y-13860D01*
G01Y-15842D01*
G54D54*
G01X61Y-13000D02*
G01X61Y-10896D01*
G54D51*
G01X4470Y-1270D02*
G01X4030Y-829D01*
G01X3333D01*
G54D55*
G01X9933Y9618D02*
G01X9868Y9683D01*
G01X8881D01*
G01X8081Y10483D01*
G01X13333Y9618D02*
G01X13333Y9320D01*
G01X12446Y8433D01*
G01Y5080D01*
G01X12054Y4688D01*
G01X12002Y3963D02*
G01X12054Y3911D01*
G01Y4688D01*
G01X9042Y3283D02*
G01X9042Y4369D01*
G01X13259Y2032D02*
G01X12852Y2438D01*
G01X9887D01*
G01X9042Y3283D01*
G54D51*
G01X11962Y643D02*
G01X11962Y1145D01*
G01X11532Y1575D01*
G01X9195D01*
G01X8738Y1118D01*
G01Y713D01*
G01X8655Y631D01*
G01X8230Y1056D01*
G01X6858Y3810D02*
G01X5451Y3810D01*
G01X4832Y4429D01*
G01X8230Y1056D02*
G01X8230Y2438D01*
G01X6858Y3810D01*
G01X3333Y-829D02*
G01X1132Y1372D01*
G01X-2692Y1372D02*
G01X-3302Y1981D01*
G01Y2845D01*
G01X-4267Y3810D01*
G01X-5520D01*
G01X-6248Y4539D01*
G01X1132Y1372D02*
G01X-2692Y1372D01*
G01X13360Y4166D02*
G01X14072Y3454D01*
G01Y1524D01*
G01X13259Y711D01*
G01X12700Y-8179D02*
G01X12700Y-3099D01*
G01X14900Y-899D01*
G01Y0D01*
G01X13259Y711D02*
G01X13259Y-1524D01*
G01X11887Y-2896D01*
G01Y-3810D01*
G01X11707Y-3990D01*
G01X11257D01*
G54D54*
G01X-16687Y-1447D02*
G01X-16687Y-245D01*
G01X-18310Y-3070D02*
G01X-16687Y-1447D01*
G01X-17370Y-6506D02*
G01X-18310Y-5566D01*
G01Y-3070D01*
G01X-17370Y-9204D02*
G01X-17370Y-6506D01*
G54D51*
G01X-2856Y-4039D02*
G01X-4902Y-4039D01*
G01X-7442Y-1499D02*
G01X-8254Y-1499D01*
G01X-4902Y-4039D02*
G01X-7442Y-1499D01*
G01X-2134Y-7010D02*
G01X-2134Y-5486D01*
G01X-2311Y-5309D01*
G01X-2856D01*
G01X-4039Y-2769D02*
G01X-2856Y-2769D01*
G01X-4115Y-2845D02*
G01X-4039Y-2769D01*
G01X8179Y-7303D02*
G01X7591Y-7890D01*
G01X5515D01*
G01X7264Y-7214D02*
G01X7264Y-6655D01*
G01X6550Y-5940D01*
G01X5515D01*
G01X7722Y-1930D02*
G01X7722Y-3302D01*
G01X8179Y-3759D01*
G01Y-7303D01*
G01X5515Y-4640D02*
G01X6434Y-4640D01*
G01X6909Y-4166D01*
G01X9703Y-4013D02*
G01X10330Y-4640D01*
G01X11257D01*
G01X8859Y-2493D02*
G01X8859Y-6336D01*
G01X9113Y-6590D01*
G01X6909Y-4166D02*
G01X6909Y-2235D01*
G01X4197Y477D01*
G01Y1521D01*
G01X4332Y-6590D02*
G01X5819Y-6590D01*
G01X4318Y-6604D02*
G01X4332Y-6590D01*
G01X1830Y-5754D02*
G01X1823Y-5760D01*
G01X1830Y-2489D02*
G01X1830Y-5754D01*
G01X3337Y-5767D02*
G01X3330Y-5760D01*
G01X406Y-5994D02*
G01X406Y-1473D01*
G01X2952Y-8540D02*
G01X406Y-5994D01*
G01X5515Y-8540D02*
G01X2952Y-8540D01*
G01X-406Y-6045D02*
G01X-406Y-1676D01*
G01X2739Y-9190D02*
G01X-406Y-6045D01*
G01X5515Y-9190D02*
G01X2739Y-9190D01*
G01X3330Y-6530D02*
G01X3330Y-5760D01*
G01X4040Y-7240D02*
G01X3330Y-6530D01*
G01X5515Y-7240D02*
G01X4040Y-7240D01*
G01X5385Y-3990D02*
G01X6175Y-3990D01*
G01X5385Y-3454D02*
G01X5385Y-3990D01*
G01X3233Y-4121D02*
G01X3905Y-4121D01*
G01X4470Y-3556D02*
G01X3905Y-4121D01*
G01X4470Y-1270D02*
G01X4470Y-3556D01*
G04 Track End*

M02*
