G04 Layer: BottomSilkscreenLayer*
G04 EasyEDA Pro v2.1.35.b8f67982.0908df, 2023-11-24 13:13:42*
G04 Gerber Generator version 0.3*
G04 Scale: 100 percent, Rotated: No, Reflected: No*
G04 Dimensions in millimeters*
G04 Leading zeros omitted, absolute positions, 3 integers and 3 decimals*
%FSLAX33Y33*%
%MOMM*%
%ADD10C,0.152*%
%ADD11C,0.254*%
%ADD12C,0.3*%
G75*


G04 Text Start*
G54D10*
G01X-4140Y-130D02*
G01X-4140Y335D01*
G01X-4110Y427D01*
G01X-4046Y490D01*
G01X-3955Y521D01*
G01X-3891D01*
G01X-3800Y490D01*
G01X-3739Y427D01*
G01X-3706Y335D01*
G01Y-130D01*
G01X-3002Y86D02*
G01X-3033Y180D01*
G01X-3096Y241D01*
G01X-3188Y272D01*
G01X-3218D01*
G01X-3312Y241D01*
G01X-3373Y180D01*
G01X-3404Y86D01*
G01Y56D01*
G01X-3373Y-38D01*
G01X-3312Y-99D01*
G01X-3218Y-130D01*
G01X-3188D01*
G01X-3096Y-99D01*
G01X-3033Y-38D01*
G01X-3002Y86D01*
G01Y241D01*
G01X-3033Y396D01*
G01X-3096Y490D01*
G01X-3188Y521D01*
G01X-3251D01*
G01X-3343Y490D01*
G01X-3373Y427D01*
G04 Text End*

G04 PolygonModel Start*
G54D11*
G01X-2500Y1500D02*
G01X-2500Y727D01*
G01X-2500Y-1500D02*
G01X-2500Y-726D01*
G01X-2500Y-1500D02*
G01X-2500Y-1905D01*
G01X-2500Y-1905D02*
G01X-2409Y-1905D01*
G01X2500Y1500D02*
G01X2500Y1905D01*
G01X2500Y1905D02*
G01X2409Y1905D01*
G01X-2500Y1500D02*
G01X-2500Y1905D01*
G01X-2500Y1905D02*
G01X-2409Y1905D01*
G01X2500Y-1500D02*
G01X2500Y-1905D01*
G01X2500Y-1905D02*
G01X2409Y-1905D01*
G01X2500Y-1500D02*
G01X2500Y1500D01*
G01X-2500Y727D02*
G02X-2495Y-726I-40J-727D01*
G04 PolygonModel End*

G04 Circle Start*
G54D12*
G01X-2690Y2667D02*
G03X-2390Y2667I150J0D01*
G03X-2690I-150J0D01*
G04 Circle End*

M02*
