G04 Layer: BottomLayer*
G04 EasyEDA Pro v2.1.35.b8f67982.0908df, 2023-11-24 13:13:42*
G04 Gerber Generator version 0.3*
G04 Scale: 100 percent, Rotated: No, Reflected: No*
G04 Dimensions in millimeters*
G04 Leading zeros omitted, absolute positions, 3 integers and 3 decimals*
%FSLAX33Y33*%
%MOMM*%
%ADD8191C,0.203*%
%ADD10C,0.98*%
%ADD11C,0.289*%
%ADD12O,0.568X1.95*%
%ADD13C,0.61*%
%ADD14C,1.27*%
%ADD15C,0.508*%
%ADD16C,1.8*%
%ADD17C,0.2575*%
%ADD18C,0.254*%
%ADD19C,0.8*%
G75*


G04 Copper Start*
G36*
G01X19642Y-15000D02*
G02X15000Y-19642I-4642J0D01*
G01X996D01*
G03X1319Y-18800I-935J842D01*
G01Y-17353D01*
G01Y-15842D01*
G01Y-13860D01*
G03X61Y-12601I-1258J0D01*
G03X-1189Y-13717I0J-1258D01*
G03X-2439Y-12601I-1250J-142D01*
G03X-3697Y-13860I0J-1258D01*
G01Y-15889D01*
G01Y-17353D01*
G01Y-18800D01*
G03X-3374Y-19642I1258J0D01*
G01X-6504D01*
G03X-6181Y-18800I-935J842D01*
G01Y-17400D01*
G01Y-15889D01*
G01Y-13954D01*
G03X-7439Y-12696I-1258J0D01*
G03X-8697Y-13954I0J-1258D01*
G01Y-15889D01*
G01Y-17400D01*
G01Y-18800D01*
G03X-8374Y-19642I1258J0D01*
G01X-15000D01*
G02X-19642Y-15000I0J4642D01*
G01Y15000D01*
G02X-15000Y19642I4642J0D01*
G01X-8133D01*
G03X-8697Y18593I694J-1049D01*
G01Y16869D01*
G01Y15169D01*
G01Y12812D01*
G03X-7439Y11554I1258J0D01*
G03X-6189Y12669I0J1258D01*
G03X-4939Y11554I1250J142D01*
G03X-3689Y12668I0J1258D01*
G03X-2439Y11554I1250J143D01*
G03X-1189Y12669I0J1258D01*
G03X61Y11554I1250J142D01*
G03X1319Y12812I0J1258D01*
G01Y15190D01*
G01Y16890D01*
G01Y18593D01*
G03X756Y19642I-1258J0D01*
G01X15000D01*
G02X19642Y15000I0J-4642D01*
G01Y8555D01*
G03X18800Y8878I-842J-935D01*
G01X17272D01*
G01X15900D01*
G03X14642Y7620I0J-1258D01*
G03X15900Y6362I1258J0D01*
G01X17272D01*
G01X18800D01*
G03X19642Y6685I0J1258D01*
G01Y6015D01*
G03X18800Y6338I-842J-935D01*
G01X18778D01*
G01X15878Y6287D01*
G03X14739Y5514I22J-1258D01*
G01X12497D01*
G03X12154Y5372I0J-485D01*
G01X10528Y3747D01*
G03X10386Y3404I343J-343D01*
G01Y-3304D01*
G01X10162Y-3528D01*
G01X10155D01*
G03X9703Y-3350I-452J-485D01*
G03X9040Y-4013I0J-663D01*
G03X9224Y-4472I663J0D01*
G03X8989Y-4978I428J-506D01*
G03X9147Y-5408I663J0D01*
G01X1827D01*
G01X1209Y-4790D01*
G03X1321Y-4803I112J472D01*
G01X6897D01*
G03X7518Y-5235I622J231D01*
G03X8182Y-4572I0J663D01*
G03X7525Y-3909I-663J0D01*
G03X7264Y-3833I-261J-409D01*
G01X5929D01*
G03X6048Y-3454I-545J378D01*
G03X5385Y-2791I-663J0D01*
G03X4933Y-2969I0J-663D01*
G01X4925D01*
G01X2883Y-927D01*
G03X2540Y-785I-343J-343D01*
G01X-3658D01*
G03X-3918Y-861I0J-485D01*
G03X-4575Y-1524I7J-663D01*
G03X-3912Y-2187I663J0D01*
G03X-3290Y-1755I0J663D01*
G01X-2493D01*
G03X-2547Y-2014I588J-259D01*
G01Y-3396D01*
G03X-2049Y-4022I642J0D01*
G01X876Y-6947D01*
G03X1219Y-7089I343J343D01*
G01X3866D01*
G03X4318Y-7267I452J485D01*
G03X4981Y-6604I0J663D01*
G03X4941Y-6378I-663J0D01*
G01X9149D01*
G03X9601Y-6556I452J485D01*
G03X10264Y-5893I0J663D01*
G03X10107Y-5464I-663J0D01*
G01X10414D01*
G03X10757Y-5321I0J485D01*
G01X11925Y-4153D01*
G03X12068Y-3810I-343J343D01*
G01Y2898D01*
G01X12749Y3579D01*
G01X12930D01*
G03X12501Y2896I329J-683D01*
G01Y2032D01*
G03X12723Y1496I758J0D01*
G01X13313Y905D01*
G01Y-4724D01*
G03X13344Y-4938I758J0D01*
G01X12824Y-5458D01*
G03X12602Y-5994I536J-536D01*
G01Y-8982D01*
G01X11719Y-9866D01*
G01X8624D01*
G01X9743Y-8746D01*
G03X10383Y-8084I-23J663D01*
G03X9720Y-7421I-663J0D01*
G03X9057Y-8060I0J-663D01*
G01X8001Y-9116D01*
G01X7115D01*
G01X7607Y-8623D01*
G03X7750Y-8280I-343J343D01*
G01Y-7666D01*
G03X7928Y-7214I-485J452D01*
G03X7264Y-6550I-663J0D01*
G03X6601Y-7214I0J-663D01*
G03X6779Y-7666I663J0D01*
G01Y-8079D01*
G01X6352Y-8506D01*
G01X-663D01*
G01X-1648Y-7521D01*
G01Y-7463D01*
G03X-1470Y-7010I-485J452D01*
G03X-2134Y-6347I-663J0D01*
G03X-2797Y-7010I0J-663D01*
G03X-2619Y-7463I663J0D01*
G01Y-7465D01*
G01X-4138Y-5946D01*
G01Y-3554D01*
G01X-4091Y-3508D01*
G03X-3452Y-2845I-23J663D01*
G03X-4115Y-2182I-663J0D01*
G03X-4778Y-2821I0J-663D01*
G01X-4966Y-3010D01*
G01X-4982Y-3027D01*
G01Y143D01*
G01X-3087Y2039D01*
G01X-2547D01*
G01Y2014D01*
G03X-1905Y1372I642J0D01*
G03X-1270Y1917I0J642D01*
G03X-635Y1372I635J97D01*
G03X0Y1917I0J642D01*
G03X635Y1372I635J97D01*
G03X1270Y1917I0J642D01*
G03X1905Y1372I635J97D01*
G03X2547Y2014I0J642D01*
G01Y3396D01*
G03X1905Y4038I-642J0D01*
G03X1270Y3493I0J-642D01*
G03X635Y4038I-635J-97D01*
G03X0Y3493I0J-642D01*
G03X-635Y4038I-635J-97D01*
G03X-1270Y3493I0J-642D01*
G03X-1447Y3847I-635J-97D01*
G03X-2098Y4382I-651J-127D01*
G03X-2761Y3719I0J-663D01*
G03X-2740Y3555I663J0D01*
G01X-3401D01*
G03X-3937Y3333I0J-758D01*
G01X-6276Y993D01*
G03X-6499Y457I536J-536D01*
G01Y-6401D01*
G03X-6276Y-6937I758J0D01*
G01X-2054Y-11160D01*
G03X-1517Y-11382I536J536D01*
G01X4843D01*
G01X5453D01*
G01X12033D01*
G03X12569Y-11160I0J758D01*
G01X13896Y-9832D01*
G03X14119Y-9296I-536J536D01*
G01Y-6308D01*
G01X14594Y-5833D01*
G01X14892D01*
G03X15900Y-6338I1008J753D01*
G01X16536D01*
G01X17323D01*
G01X18800D01*
G03X19642Y-6015I0J1258D01*
G01Y-15000D01*
G37*
%LPC*%
G36*
G01X-16284Y3980D02*
G03X-15290Y2987I993J0D01*
G01X-14358D01*
G03X-13656Y3278I0J993D01*
G01X-13369Y3565D01*
G01X-12303Y4632D01*
G03X-12012Y5334I-702J702D01*
G01Y6344D01*
G01X6737D01*
G03X7730Y7337I0J993D01*
G01Y8300D01*
G03X7736Y8406I-988J105D01*
G01Y8733D01*
G01X8783Y9781D01*
G01X8784D01*
G03X9075Y10483I-702J702D01*
G01Y12623D01*
G03X8081Y13616I-993J0D01*
G03X7088Y12623I0J-993D01*
G01Y10895D01*
G01X6040Y9847D01*
G03X5749Y9144I702J-702D01*
G01Y9070D01*
G01X-3349D01*
G03X-4026Y9337I-677J-726D01*
G01X-8293D01*
G01X-11137D01*
G01X-11773D01*
G03X-12475Y9046I0J-993D01*
G01X-13482Y8040D01*
G01X-13707Y7814D01*
G03X-13998Y7112I702J-702D01*
G01Y5745D01*
G01X-14770Y4973D01*
G01X-15290D01*
G03X-16284Y3980I0J-993D01*
G37*
G36*
G01X15500Y-17458D02*
G03X17458Y-15500I0J1958D01*
G03X15500Y-13542I-1958J0D01*
G03X13542Y-15500I0J-1958D01*
G03X15500Y-17458I1958J0D01*
G37*
G36*
G01X15500Y13542D02*
G03X17458Y15500I0J1958D01*
G03X15500Y17458I-1958J0D01*
G03X13542Y15500I0J-1958D01*
G03X15500Y13542I1958J0D01*
G37*
G36*
G01X-15500Y-17458D02*
G03X-13542Y-15500I0J1958D01*
G03X-15500Y-13542I-1958J0D01*
G03X-17458Y-15500I0J-1958D01*
G03X-15500Y-17458I1958J0D01*
G37*
G36*
G01X-17458Y15500D02*
G03X-15500Y13542I1958J0D01*
G03X-13542Y15500I0J1958D01*
G03X-15500Y17458I-1958J0D01*
G03X-17458Y15500I0J-1958D01*
G37*
G36*
G01X-13255Y-9897D02*
G03X-12553Y-10188I702J702D01*
G01X-10246D01*
G01X-10239D01*
G01X-7417D01*
G03X-6424Y-9195I0J993D01*
G03X-7417Y-8202I-993J0D01*
G01X-10246D01*
G01X-10253D01*
G01X-12426D01*
G03X-12562Y-8192I-136J-984D01*
G03X-13555Y-9185I0J-993D01*
G03X-13264Y-9888I993J0D01*
G01X-13255Y-9897D01*
G37*
%LPD*%
G54D8191*
G01X19642Y-15000D02*
G02X15000Y-19642I-4642J0D01*
G01X996D01*
G03X1319Y-18800I-935J842D01*
G01Y-17353D01*
G01Y-15842D01*
G01Y-13860D01*
G03X61Y-12601I-1258J0D01*
G03X-1189Y-13717I0J-1258D01*
G03X-2439Y-12601I-1250J-142D01*
G03X-3697Y-13860I0J-1258D01*
G01Y-15889D01*
G01Y-17353D01*
G01Y-18800D01*
G03X-3374Y-19642I1258J0D01*
G01X-6504D01*
G03X-6181Y-18800I-935J842D01*
G01Y-17400D01*
G01Y-15889D01*
G01Y-13954D01*
G03X-7439Y-12696I-1258J0D01*
G03X-8697Y-13954I0J-1258D01*
G01Y-15889D01*
G01Y-17400D01*
G01Y-18800D01*
G03X-8374Y-19642I1258J0D01*
G01X-15000D01*
G02X-19642Y-15000I0J4642D01*
G01Y15000D01*
G02X-15000Y19642I4642J0D01*
G01X-8133D01*
G03X-8697Y18593I694J-1049D01*
G01Y16869D01*
G01Y15169D01*
G01Y12812D01*
G03X-7439Y11554I1258J0D01*
G03X-6189Y12669I0J1258D01*
G03X-4939Y11554I1250J142D01*
G03X-3689Y12668I0J1258D01*
G03X-2439Y11554I1250J143D01*
G03X-1189Y12669I0J1258D01*
G03X61Y11554I1250J142D01*
G03X1319Y12812I0J1258D01*
G01Y15190D01*
G01Y16890D01*
G01Y18593D01*
G03X756Y19642I-1258J0D01*
G01X15000D01*
G02X19642Y15000I0J-4642D01*
G01Y8555D01*
G03X18800Y8878I-842J-935D01*
G01X17272D01*
G01X15900D01*
G03X14642Y7620I0J-1258D01*
G03X15900Y6362I1258J0D01*
G01X17272D01*
G01X18800D01*
G03X19642Y6685I0J1258D01*
G01Y6015D01*
G03X18800Y6338I-842J-935D01*
G01X18778D01*
G01X15878Y6287D01*
G03X14739Y5514I22J-1258D01*
G01X12497D01*
G03X12154Y5372I0J-485D01*
G01X10528Y3747D01*
G03X10386Y3404I343J-343D01*
G01Y-3304D01*
G01X10162Y-3528D01*
G01X10155D01*
G03X9703Y-3350I-452J-485D01*
G03X9040Y-4013I0J-663D01*
G03X9224Y-4472I663J0D01*
G03X8989Y-4978I428J-506D01*
G03X9147Y-5408I663J0D01*
G01X1827D01*
G01X1209Y-4790D01*
G03X1321Y-4803I112J472D01*
G01X6897D01*
G03X7518Y-5235I622J231D01*
G03X8182Y-4572I0J663D01*
G03X7525Y-3909I-663J0D01*
G03X7264Y-3833I-261J-409D01*
G01X5929D01*
G03X6048Y-3454I-545J378D01*
G03X5385Y-2791I-663J0D01*
G03X4933Y-2969I0J-663D01*
G01X4925D01*
G01X2883Y-927D01*
G03X2540Y-785I-343J-343D01*
G01X-3658D01*
G03X-3918Y-861I0J-485D01*
G03X-4575Y-1524I7J-663D01*
G03X-3912Y-2187I663J0D01*
G03X-3290Y-1755I0J663D01*
G01X-2493D01*
G03X-2547Y-2014I588J-259D01*
G01Y-3396D01*
G03X-2049Y-4022I642J0D01*
G01X876Y-6947D01*
G03X1219Y-7089I343J343D01*
G01X3866D01*
G03X4318Y-7267I452J485D01*
G03X4981Y-6604I0J663D01*
G03X4941Y-6378I-663J0D01*
G01X9149D01*
G03X9601Y-6556I452J485D01*
G03X10264Y-5893I0J663D01*
G03X10107Y-5464I-663J0D01*
G01X10414D01*
G03X10757Y-5321I0J485D01*
G01X11925Y-4153D01*
G03X12068Y-3810I-343J343D01*
G01Y2898D01*
G01X12749Y3579D01*
G01X12930D01*
G03X12501Y2896I329J-683D01*
G01Y2032D01*
G03X12723Y1496I758J0D01*
G01X13313Y905D01*
G01Y-4724D01*
G03X13344Y-4938I758J0D01*
G01X12824Y-5458D01*
G03X12602Y-5994I536J-536D01*
G01Y-8982D01*
G01X11719Y-9866D01*
G01X8624D01*
G01X9743Y-8746D01*
G03X10383Y-8084I-23J663D01*
G03X9720Y-7421I-663J0D01*
G03X9057Y-8060I0J-663D01*
G01X8001Y-9116D01*
G01X7115D01*
G01X7607Y-8623D01*
G03X7750Y-8280I-343J343D01*
G01Y-7666D01*
G03X7928Y-7214I-485J452D01*
G03X7264Y-6550I-663J0D01*
G03X6601Y-7214I0J-663D01*
G03X6779Y-7666I663J0D01*
G01Y-8079D01*
G01X6352Y-8506D01*
G01X-663D01*
G01X-1648Y-7521D01*
G01Y-7463D01*
G03X-1470Y-7010I-485J452D01*
G03X-2134Y-6347I-663J0D01*
G03X-2797Y-7010I0J-663D01*
G03X-2619Y-7463I663J0D01*
G01Y-7465D01*
G01X-4138Y-5946D01*
G01Y-3554D01*
G01X-4091Y-3508D01*
G03X-3452Y-2845I-23J663D01*
G03X-4115Y-2182I-663J0D01*
G03X-4778Y-2821I0J-663D01*
G01X-4966Y-3010D01*
G01X-4982Y-3027D01*
G01Y143D01*
G01X-3087Y2039D01*
G01X-2547D01*
G01Y2014D01*
G03X-1905Y1372I642J0D01*
G03X-1270Y1917I0J642D01*
G03X-635Y1372I635J97D01*
G03X0Y1917I0J642D01*
G03X635Y1372I635J97D01*
G03X1270Y1917I0J642D01*
G03X1905Y1372I635J97D01*
G03X2547Y2014I0J642D01*
G01Y3396D01*
G03X1905Y4038I-642J0D01*
G03X1270Y3493I0J-642D01*
G03X635Y4038I-635J-97D01*
G03X0Y3493I0J-642D01*
G03X-635Y4038I-635J-97D01*
G03X-1270Y3493I0J-642D01*
G03X-1447Y3847I-635J-97D01*
G03X-2098Y4382I-651J-127D01*
G03X-2761Y3719I0J-663D01*
G03X-2740Y3555I663J0D01*
G01X-3401D01*
G03X-3937Y3333I0J-758D01*
G01X-6276Y993D01*
G03X-6499Y457I536J-536D01*
G01Y-6401D01*
G03X-6276Y-6937I758J0D01*
G01X-2054Y-11160D01*
G03X-1517Y-11382I536J536D01*
G01X4843D01*
G01X5453D01*
G01X12033D01*
G03X12569Y-11160I0J758D01*
G01X13896Y-9832D01*
G03X14119Y-9296I-536J536D01*
G01Y-6308D01*
G01X14594Y-5833D01*
G01X14892D01*
G03X15900Y-6338I1008J753D01*
G01X16536D01*
G01X17323D01*
G01X18800D01*
G03X19642Y-6015I0J1258D01*
G01Y-15000D01*
G01X-16284Y3980D02*
G03X-15290Y2987I993J0D01*
G01X-14358D01*
G03X-13656Y3278I0J993D01*
G01X-13369Y3565D01*
G01X-12303Y4632D01*
G03X-12012Y5334I-702J702D01*
G01Y6344D01*
G01X6737D01*
G03X7730Y7337I0J993D01*
G01Y8300D01*
G03X7736Y8406I-988J105D01*
G01Y8733D01*
G01X8783Y9781D01*
G01X8784D01*
G03X9075Y10483I-702J702D01*
G01Y12623D01*
G03X8081Y13616I-993J0D01*
G03X7088Y12623I0J-993D01*
G01Y10895D01*
G01X6040Y9847D01*
G03X5749Y9144I702J-702D01*
G01Y9070D01*
G01X-3349D01*
G03X-4026Y9337I-677J-726D01*
G01X-8293D01*
G01X-11137D01*
G01X-11773D01*
G03X-12475Y9046I0J-993D01*
G01X-13482Y8040D01*
G01X-13707Y7814D01*
G03X-13998Y7112I702J-702D01*
G01Y5745D01*
G01X-14770Y4973D01*
G01X-15290D01*
G03X-16284Y3980I0J-993D01*
G01X15500Y-17458D02*
G03X17458Y-15500I0J1958D01*
G03X15500Y-13542I-1958J0D01*
G03X13542Y-15500I0J-1958D01*
G03X15500Y-17458I1958J0D01*
G01X15500Y13542D02*
G03X17458Y15500I0J1958D01*
G03X15500Y17458I-1958J0D01*
G03X13542Y15500I0J-1958D01*
G03X15500Y13542I1958J0D01*
G01X-15500Y-17458D02*
G03X-13542Y-15500I0J1958D01*
G03X-15500Y-13542I-1958J0D01*
G03X-17458Y-15500I0J-1958D01*
G03X-15500Y-17458I1958J0D01*
G01X-17458Y15500D02*
G03X-15500Y13542I1958J0D01*
G03X-13542Y15500I0J1958D01*
G03X-15500Y17458I-1958J0D01*
G03X-17458Y15500I0J-1958D01*
G01X-13255Y-9897D02*
G03X-12553Y-10188I702J702D01*
G01X-10246D01*
G01X-10239D01*
G01X-7417D01*
G03X-6424Y-9195I0J993D01*
G03X-7417Y-8202I-993J0D01*
G01X-10246D01*
G01X-10253D01*
G01X-12426D01*
G03X-12562Y-8192I-136J-984D01*
G03X-13555Y-9185I0J-993D01*
G03X-13264Y-9888I993J0D01*
G01X-13255Y-9897D01*
G54D10*
G01X1905Y2705D02*
G01X2448Y2705D01*
G54D11*
G01X1905Y2705D02*
G01X1905Y3939D01*
G01X1905Y2705D02*
G01X1905Y1471D01*
G04 Copper End*

G04 Pad Start*
G54D12*
G01X-1905Y2705D03*
G01X-635Y2705D03*
G01X635Y2705D03*
G01X1905Y2705D03*
G01X-1905Y-2705D03*
G01X-635Y-2705D03*
G01X635Y-2705D03*
G01X1905Y-2705D03*
G04 Pad End*

G04 Via Start*
G54D13*
G01X9703Y-4013D03*
G01X9652Y-4978D03*
G01X-635Y2705D03*
G01X7518Y-4572D03*
G01X4318Y-6604D03*
G01X9601Y-5893D03*
G01X7264Y-7214D03*
G01X-2134Y-7010D03*
G01X-4115Y-2845D03*
G01X9720Y-8084D03*
G01X5385Y-3454D03*
G01X-3912Y-1524D03*
G01X13259Y2896D03*
G01X13259Y2032D03*
G01X4843Y-10624D03*
G01X5453Y-10624D03*
G01X-7439Y-13954D03*
G01X-7439Y-15889D03*
G01X-7439Y-18948D03*
G01X-4939Y-18988D03*
G01X-4939Y-15842D03*
G01X-4939Y-13907D03*
G01X-4939Y-17400D03*
G01X-7439Y-17400D03*
G01X-2439Y-13860D03*
G01X-2439Y-18999D03*
G01X-2439Y-15889D03*
G01X-2439Y-17353D03*
G01X61Y-13860D03*
G01X61Y-15842D03*
G01X61Y-17353D03*
G01X61Y-18948D03*
G01X-7439Y15169D03*
G01X-4939Y15169D03*
G01X-2439Y15169D03*
G01X61Y15190D03*
G01X61Y18593D03*
G01X61Y16890D03*
G01X-2439Y16869D03*
G01X-4939Y16848D03*
G01X-7439Y16869D03*
G01X-4939Y18593D03*
G01X-2439Y18593D03*
G01X61Y12812D03*
G01X-2439Y12812D03*
G01X-4939Y12812D03*
G01X-7439Y12812D03*
G01X-4343Y7447D03*
G01X-3759Y8077D03*
G01X6737Y7337D03*
G01X6743Y8406D03*
G01X-11137Y8344D03*
G01X-13005Y7112D03*
G01X-14072Y4267D03*
G01X8081Y10483D03*
G01X-15290Y3980D03*
G01X8081Y12623D03*
G01X-7417Y-9195D03*
G01X-12562Y-9185D03*
G01X-10246Y-9195D03*
G01X-10719Y-14275D03*
G01X3150Y-14275D03*
G01X5537Y4928D03*
G01X3983Y4928D03*
G01X-5480Y4934D03*
G01X-7074Y4934D03*
G01X-7061Y3912D03*
G01X-5486Y3912D03*
G01X4025Y4023D03*
G01X5556Y4023D03*
G01X10516Y7518D03*
G01X10566Y5842D03*
G01X-2118Y2797D03*
G01X-2098Y3719D03*
G01X7976Y-8585D03*
G01X-762Y-7010D03*
G01X-7439Y18593D03*
G01X18796Y7620D03*
G01X18796Y5029D03*
G01X18796Y2540D03*
G01X18796Y0D03*
G01X18796Y-2540D03*
G01X18796Y-5080D03*
G01X18796Y-7620D03*
G01X17272Y7620D03*
G01X17272Y5029D03*
G01X17272Y2540D03*
G01X17272Y0D03*
G01X17323Y-2540D03*
G01X17323Y-5080D03*
G01X17323Y-7620D03*
G01X18593Y11989D03*
G01X12700Y18694D03*
G01X-12294Y18847D03*
G01X-18542Y11532D03*
G01X-12344Y11481D03*
G01X12703Y12006D03*
G01X17628Y-11481D03*
G01X10516Y-11684D03*
G01X11481Y-18644D03*
G01X-11938Y-18999D03*
G01X-12090Y-11633D03*
G01X-18796Y-11582D03*
G01X7010Y-12598D03*
G01X3150Y-11887D03*
G01X-15037Y-9754D03*
G01X-15037Y406D03*
G01X-8230Y51D03*
G01X-9957Y10566D03*
G01X-4928Y-12141D03*
G01X4318Y-18745D03*
G01X5131Y11379D03*
G01X5283Y15646D03*
G01X10363Y15646D03*
G01X15443Y-9754D03*
G01X15443Y10566D03*
G01X-4928Y-10312D03*
G01X-14681Y-4267D03*
G01X-10719Y2235D03*
G01X-18591Y4426D03*
G01X2743Y14834D03*
G01X-10008Y14935D03*
G01X-16764Y7620D03*
G01X-16490Y-4250D03*
G01X15520Y7620D03*
G01X15443Y5029D03*
G01X15430Y2540D03*
G01X15450Y0D03*
G01X15414Y-2540D03*
G01X15394Y-5075D03*
G01X15430Y-7631D03*
G01X4470Y-1270D03*
G04 Via End*

G04 Track Start*
G54D14*
G01X-14072Y4267D02*
G01X-13005Y5334D01*
G01Y7112D01*
G01X-11773Y8344D02*
G01X-11137Y8344D01*
G01X-4343Y7447D02*
G01X-3759Y8031D01*
G01Y8077D01*
G01X6737Y7337D02*
G01X6737Y8400D01*
G01X6743Y8406D01*
G01X8081Y10483D02*
G01X6743Y9144D01*
G01Y8406D01*
G01X-3759Y8077D02*
G01X6414Y8077D01*
G01X6737Y8400D01*
G01X-4343Y7447D02*
G01X-7396Y7447D01*
G01X-8293Y8344D02*
G01X-11137Y8344D01*
G01X-7396Y7447D02*
G01X-8293Y8344D01*
G01X8081Y10483D02*
G01X8081Y12623D01*
G01X6737Y7337D02*
G01X-12780Y7337D01*
G01X-13005Y7112D01*
G01X-12780Y7337D02*
G01X-11773Y8344D01*
G01X-4026Y8344D02*
G01X-3759Y8077D01*
G01X-8293Y8344D02*
G01X-4026Y8344D01*
G01X-14072Y4267D02*
G01X-14358Y3980D01*
G01X-15290D01*
G54D15*
G01X-2098Y3719D02*
G01X-2098Y2898D01*
G01X-1905Y2705D01*
G54D16*
G01X61Y-13860D02*
G01X61Y-15842D01*
G01Y-17353D01*
G01Y-18800D01*
G01X-2439Y-13860D02*
G01X-2439Y-15889D01*
G01Y-17353D01*
G01Y-18800D01*
G01X-4939Y-13907D02*
G01X-4939Y-15842D01*
G01Y-17400D01*
G01Y-18800D01*
G01X-7439Y-13954D02*
G01X-7439Y-15889D01*
G01Y-17400D01*
G01Y-18800D01*
G01X61Y12812D02*
G01X61Y15190D01*
G01Y16890D01*
G01Y18593D01*
G01X-2439Y12812D02*
G01X-2439Y15169D01*
G01Y16869D01*
G01Y18593D01*
G01X-4939Y12812D02*
G01X-4939Y15169D01*
G01Y16848D01*
G01Y18593D01*
G01X-7439Y12812D02*
G01X-7439Y15169D01*
G01Y16869D01*
G01Y18593D01*
G54D18*
G01X18796Y2540D02*
G01X18786Y2550D01*
G54D16*
G01X17272Y7620D02*
G01X15900Y7620D01*
G01X17272Y7620D02*
G01X18800Y7620D01*
G54D18*
G01X17272Y5029D02*
G01X18796Y5029D01*
G54D16*
G01X17272Y2540D02*
G01X15910Y2540D01*
G01X17272Y0D02*
G01X15900Y0D01*
G01X17272Y0D02*
G01X18800Y0D01*
G01X17323Y-2540D02*
G01X15900Y-2540D01*
G01X17323Y-2540D02*
G01X18800Y-2540D01*
G01X17323Y-5080D02*
G01X18800Y-5080D01*
G01X17323Y-7620D02*
G01X18800Y-7620D01*
G54D14*
G01X-10246Y-9195D02*
G01X-12553Y-9195D01*
G01X-12562Y-9185D01*
G01X-7417Y-9195D02*
G01X-10246Y-9195D01*
G54D16*
G01X15900Y-5080D02*
G01X16536Y-5080D01*
G01X17323Y-5080D02*
G01X16536Y-5080D01*
G54D18*
G01X17272Y5029D02*
G01X15900Y5029D01*
G54D16*
G01X17323Y-7620D02*
G01X15900Y-7620D01*
G54D18*
G01X9703Y-4013D02*
G01X10363Y-4013D01*
G54D15*
G01X16536Y-5080D02*
G01X15394Y-5075D01*
G54D16*
G01X17272Y2540D02*
G01X18796Y2540D01*
G01X18800D01*
G01X15910Y2540D02*
G01X15900Y2550D01*
G01X15900Y5029D02*
G01X18800Y5080D01*
G54D18*
G01X12497Y5029D02*
G01X15443Y5029D01*
G01X15900D01*
G54D19*
G01X13259Y2896D02*
G01X13259Y2032D01*
G01X-5740Y-6401D02*
G01X-1517Y-10624D01*
G01X4843D01*
G01X5453D01*
G01X15394Y-5075D02*
G01X14422Y-5075D01*
G01X14280Y-5075D02*
G01X14422Y-5075D01*
G01X13360Y-5994D02*
G01X14280Y-5075D01*
G54D18*
G01X9652Y-4978D02*
G01X10414Y-4978D01*
G54D19*
G01X13259Y2032D02*
G01X14072Y1219D01*
G01Y-4724D01*
G01X14422Y-5075D01*
G54D18*
G01X10363Y-4013D02*
G01X10871Y-3505D01*
G01Y3404D01*
G01X12497Y5029D01*
G01X10414Y-4978D02*
G01X11582Y-3810D01*
G01Y3099D01*
G01X12548Y4064D01*
G01X15900Y2550D02*
G01X18786Y2550D01*
G01X15900Y2550D02*
G01X15585Y2550D01*
G01X14072Y4064D01*
G01X12548D01*
G54D19*
G01X5453Y-10624D02*
G01X12033Y-10624D01*
G01X13360Y-9296D01*
G01Y-5994D01*
G01X-2118Y2797D02*
G01X-3401Y2797D01*
G01X-5740Y457D01*
G01Y-6401D01*
G54D18*
G01X-1168Y-9601D02*
G01X8202Y-9601D01*
G01X9720Y-8084D01*
G01X-2134Y-7010D02*
G01X-2134Y-7722D01*
G01X-864Y-8992D01*
G01X7264Y-7214D02*
G01X7264Y-8280D01*
G01X6553Y-8992D01*
G01X-864D01*
G01X-635Y-3632D02*
G01X-635Y-2705D01*
G01X-1905Y-3480D02*
G01X-1905Y-2705D01*
G01X4318Y-6604D02*
G01X1219Y-6604D01*
G01X-1905Y-3480D01*
G01X635Y-3632D02*
G01X635Y-2705D01*
G01X7518Y-4572D02*
G01X7264Y-4318D01*
G01X1321D01*
G01X635Y-3632D01*
G01X-4115Y-2845D02*
G01X-4623Y-3353D01*
G01Y-6147D01*
G01X-1168Y-9601D01*
G01X1626Y-5893D02*
G01X-635Y-3632D01*
G01X9601Y-5893D02*
G01X1626Y-5893D01*
G01X-3658Y-1270D02*
G01X-3912Y-1524D01*
G01X5385Y-3454D02*
G01X4724Y-3454D01*
G01X2540Y-1270D01*
G01X-3658D01*
G04 Track End*

M02*
