G04 Layer: TopSolderMaskLayer*
G04 EasyEDA Pro v2.1.35.b8f67982.0908df, 2023-11-24 13:13:42*
G04 Gerber Generator version 0.3*
G04 Scale: 100 percent, Rotated: No, Reflected: No*
G04 Dimensions in millimeters*
G04 Leading zeros omitted, absolute positions, 3 integers and 3 decimals*
%FSLAX33Y33*%
%MOMM*%
%AMRoundRect*1,1,$1,$2,$3*1,1,$1,$4,$5*1,1,$1,0-$2,0-$3*1,1,$1,0-$4,0-$5*20,1,$1,$2,$3,$4,$5,0*20,1,$1,$4,$5,0-$2,0-$3,0*20,1,$1,0-$2,0-$3,0-$4,0-$5,0*20,1,$1,0-$4,0-$5,$2,$3,0*4,1,4,$2,$3,$4,$5,0-$2,0-$3,0-$4,0-$5,$2,$3,0*%
%ADD10C,1.4*%
%ADD11C,7.005*%
%ADD12RoundRect,0.096X1.026X-0.813X-1.026X-0.813*%
%ADD13RoundRect,0.096X-1.026X0.813X1.026X0.813*%
%ADD14RoundRect,0.092X-0.405X0.455X0.405X0.455*%
%ADD15RoundRect,0.089X-0.306X0.606X0.306X0.606*%
%ADD16RoundRect,0.098X1.652X-1.202X-1.652X-1.202*%
%ADD17RoundRect,0.0909X0.408X-0.437X-0.408X-0.437*%
%ADD18RoundRect,0.091X0.408X-0.437X-0.408X-0.437*%
%ADD19RoundRect,0.091X-0.408X0.437X0.408X0.437*%
%ADD20RoundRect,0.091X-0.437X-0.408X-0.437X0.408*%
%ADD21RoundRect,0.092X0.455X0.405X0.455X-0.405*%
%ADD22RoundRect,0.092X0.405X-0.455X-0.405X-0.455*%
%ADD23RoundRect,0.095X0.746X-0.813X-0.746X-0.813*%
%ADD24O,1.844X0.466*%
%ADD25RoundRect,0.093X0.653X-2.253X-0.653X-2.253*%
%ADD26RoundRect,0.095X0.902X-1.952X-0.902X-1.952*%
%ADD27RoundRect,0.093X-0.653X2.253X0.653X2.253*%
%ADD28RoundRect,0.095X-0.902X1.952X0.902X1.952*%
%ADD29RoundRect,0.095X-0.604X-1.754X-0.604X1.754*%
%ADD30RoundRect,0.094X0.554X-0.854X-0.554X-0.854*%
%ADD31RoundRect,0.09X0.342X0.793X0.342X-0.793*%
%ADD32RoundRect,0.09X-0.793X0.342X0.793X0.342*%
%ADD33RoundRect,0.094X0.854X0.607X0.854X-0.607*%
%ADD34RoundRect,0.094X0.607X-0.854X-0.607X-0.854*%
%ADD35O,1.99X0.676*%
%ADD36RoundRect,0.095X-1.104X-0.639X-1.104X0.639*%
G75*


G04 PolygonModel Start*
G54D10*
G01X61Y12812D02*
G01X61Y18593D01*
G01X-2439Y13159D02*
G01X-2439Y18593D01*
G01X-4939Y12812D02*
G01X-4939Y18593D01*
G01X-7439Y12812D02*
G01X-7439Y18593D01*
G01X61Y-18800D02*
G01X61Y-13860D01*
G01X-2439Y-18800D02*
G01X-2439Y-13860D01*
G01X-4939Y-18800D02*
G01X-4939Y-13907D01*
G01X-7439Y-18948D02*
G01X-7439Y-13954D01*
G01X15900Y7620D02*
G01X19101Y7620D01*
G01X19101Y5080D02*
G01X15900Y5080D01*
G01X15900Y2540D02*
G01X19101Y2540D01*
G01X15900Y0D02*
G01X19101Y0D01*
G01X15900Y-2540D02*
G01X19101Y-2540D01*
G01X15851Y-5070D02*
G01X15890Y-5070D01*
G01X15900Y-5080D01*
G01X19101D01*
G01X15900Y-7620D02*
G01X19101Y-7620D01*
G04 PolygonModel End*

G04 Circle Start*
G54D11*
G01X15500Y-15500D03*
G01X-15500Y-15500D03*
G01X15500Y15500D03*
G01X-15500Y15500D03*
G04 Circle End*

G04 Pad Start*
G54D12*
G01X-12562Y-9185D03*
G54D13*
G01X-17370Y-9204D03*
G54D14*
G01X6362Y9703D03*
G01X4962Y9703D03*
G54D15*
G01X2927Y1521D03*
G01X4197Y1521D03*
G01X5467Y1521D03*
G01X6737Y1521D03*
G01X6737Y7337D03*
G01X5467Y7337D03*
G01X4197Y7337D03*
G01X2927Y7337D03*
G54D16*
G01X4832Y4429D03*
G54D15*
G01X-8153Y1630D03*
G01X-6883Y1630D03*
G01X-5613Y1630D03*
G01X-4343Y1630D03*
G01X-4343Y7447D03*
G01X-5613Y7447D03*
G01X-6883Y7447D03*
G01X-8153Y7447D03*
G54D16*
G01X-6248Y4539D03*
G54D18*
G01X-2118Y2797D03*
G01X-611Y2797D03*
G54D14*
G01X6877Y-11538D03*
G01X5477Y-11538D03*
G54D19*
G01X10366Y-2493D03*
G01X8859Y-2493D03*
G54D20*
G01X10337Y634D03*
G01X10337Y-873D03*
G54D21*
G01X8655Y-769D03*
G01X8655Y631D03*
G01X11962Y-757D03*
G01X11962Y643D03*
G54D18*
G01X1823Y-5760D03*
G01X3330Y-5760D03*
G54D19*
G01X3336Y-2489D03*
G01X1830Y-2489D03*
G54D22*
G01X1933Y-829D03*
G01X3333Y-829D03*
G01X1833Y-4121D03*
G01X3233Y-4121D03*
G54D23*
G01X6262Y-17171D03*
G01X9247Y-17171D03*
G54D24*
G01X11257Y-9840D03*
G01X11257Y-9190D03*
G01X11257Y-8540D03*
G01X11257Y-7890D03*
G01X11257Y-7240D03*
G01X11257Y-6590D03*
G01X11257Y-5940D03*
G01X11257Y-5290D03*
G01X11257Y-4640D03*
G01X11257Y-3990D03*
G01X5515Y-9840D03*
G01X5515Y-9190D03*
G01X5515Y-8540D03*
G01X5515Y-7890D03*
G01X5515Y-7240D03*
G01X5515Y-6590D03*
G01X5515Y-5940D03*
G01X5515Y-5290D03*
G01X5515Y-4640D03*
G01X5515Y-3990D03*
G54D22*
G01X-2118Y4429D03*
G01X-718Y4429D03*
G54D21*
G01X1079Y2829D03*
G01X1079Y4229D03*
G01X-10041Y8444D03*
G01X-10041Y9844D03*
G54D25*
G01X61Y10904D03*
G01X-2439Y10904D03*
G54D26*
G01X3261Y17704D03*
G01X-10639Y17704D03*
G54D25*
G01X-4939Y10904D03*
G01X-7439Y10904D03*
G54D27*
G01X-7439Y-10896D03*
G01X-4939Y-10896D03*
G54D28*
G01X-10639Y-17696D03*
G01X3261Y-17696D03*
G54D27*
G01X-2439Y-10896D03*
G01X61Y-10896D03*
G54D29*
G01X-15290Y9320D03*
G01X-15290Y3980D03*
G01X8082Y16951D03*
G01X8082Y11611D03*
G54D30*
G01X13333Y9750D03*
G01X9933Y9750D03*
G36*
G01X10892Y3175D02*
G02X10841Y3124I-51J0D01*
G01X10181D01*
G02X10130Y3175I0J51D01*
G01Y4832D01*
G01X10090Y4841D01*
G01X10078Y4845D01*
G01X10039Y4865D01*
G01X10037Y4866D01*
G01X9998Y4888D01*
G01X9996Y4889D01*
G01X9958Y4913D01*
G01X9956Y4914D01*
G01X9920Y4940D01*
G01X9918Y4941D01*
G01X9882Y4969D01*
G01X9881Y4970D01*
G01X9847Y4999D01*
G01X9845Y5000D01*
G01X9812Y5031D01*
G01X9811Y5032D01*
G01X9779Y5064D01*
G01X9778Y5066D01*
G01X9748Y5099D01*
G01X9747Y5101D01*
G01X9719Y5136D01*
G01X9717Y5138D01*
G01X9691Y5174D01*
G01X9689Y5176D01*
G01X9665Y5213D01*
G01X9664Y5215D01*
G01X9641Y5253D01*
G01X9639Y5255D01*
G01X9618Y5294D01*
G01X9617Y5296D01*
G01X9598Y5337D01*
G01X9597Y5339D01*
G01X9580Y5380D01*
G01X9579Y5382D01*
G01X9564Y5424D01*
G01X9563Y5426D01*
G01X9550Y5469D01*
G01X9549Y5471D01*
G01X9538Y5514D01*
G01X9537Y5516D01*
G01X9528Y5560D01*
G01X9527Y5562D01*
G01X9520Y5606D01*
G01Y5609D01*
G01X9514Y5653D01*
G01Y5655D01*
G01X9511Y5700D01*
G01Y5702D01*
G01X9510Y5746D01*
G01Y5748D01*
G01Y7602D01*
G01Y7603D01*
G01X9511Y7648D01*
G01Y7650D01*
G01X9514Y7694D01*
G01Y7697D01*
G01X9520Y7741D01*
G01Y7743D01*
G01X9527Y7787D01*
G01X9528Y7790D01*
G01X9537Y7833D01*
G01X9538Y7836D01*
G01X9549Y7879D01*
G01X9550Y7881D01*
G01X9563Y7923D01*
G01X9564Y7926D01*
G01X9579Y7968D01*
G01X9580Y7970D01*
G01X9597Y8011D01*
G01X9598Y8013D01*
G01X9617Y8053D01*
G01X9618Y8055D01*
G01X9639Y8095D01*
G01X9641Y8097D01*
G01X9664Y8135D01*
G01X9665Y8137D01*
G01X9689Y8174D01*
G01X9691Y8176D01*
G01X9717Y8212D01*
G01X9719Y8214D01*
G01X9747Y8248D01*
G01X9748Y8250D01*
G01X9778Y8284D01*
G01X9779Y8285D01*
G01X9811Y8317D01*
G01X9812Y8319D01*
G01X9845Y8349D01*
G01X9847Y8351D01*
G01X9881Y8380D01*
G01X9882Y8381D01*
G01X9918Y8408D01*
G01X9920Y8410D01*
G01X9956Y8435D01*
G01X9958Y8436D01*
G01X9996Y8460D01*
G01X9998Y8461D01*
G01X10037Y8483D01*
G01X10039Y8485D01*
G01X10078Y8505D01*
G01X10081Y8506D01*
G01X10121Y8524D01*
G01X10123Y8525D01*
G01X10165Y8541D01*
G01X10167Y8542D01*
G01X10209Y8556D01*
G01X10212Y8557D01*
G01X10254Y8570D01*
G01X10257D01*
G01X10300Y8580D01*
G01X10302Y8581D01*
G01X10346Y8589D01*
G01X10348Y8590D01*
G01X10393Y8596D01*
G01X10395D01*
G01X10439Y8600D01*
G01X10442Y8601D01*
G01X10486Y8603D01*
G01X10489D01*
G01X10533D01*
G01X10536D01*
G01X10580Y8601D01*
G01X10582Y8600D01*
G01X10627Y8596D01*
G01X10629D01*
G01X10673Y8590D01*
G01X10676Y8589D01*
G01X10719Y8581D01*
G01X10722Y8580D01*
G01X10765Y8570D01*
G01X10767D01*
G01X10810Y8557D01*
G01X10812Y8556D01*
G01X10855Y8542D01*
G01X10857Y8541D01*
G01X10898Y8525D01*
G01X10900Y8524D01*
G01X10941Y8506D01*
G01X10943Y8505D01*
G01X10983Y8485D01*
G01X10985Y8483D01*
G01X11024Y8461D01*
G01X11026Y8460D01*
G01X11064Y8436D01*
G01X11066Y8435D01*
G01X11102Y8410D01*
G01X11104Y8408D01*
G01X11139Y8381D01*
G01X11141Y8380D01*
G01X11175Y8351D01*
G01X11177Y8349D01*
G01X11209Y8319D01*
G01X11211Y8317D01*
G01X11242Y8285D01*
G01X11244Y8284D01*
G01X11274Y8250D01*
G01X11275Y8248D01*
G01X11303Y8214D01*
G01X11305Y8212D01*
G01X11331Y8176D01*
G01X11332Y8174D01*
G01X11357Y8137D01*
G01X11358Y8135D01*
G01X11381Y8097D01*
G01X11382Y8095D01*
G01X11403Y8055D01*
G01X11404Y8053D01*
G01X11424Y8013D01*
G01Y8011D01*
G01X11442Y7970D01*
G01X11443Y7968D01*
G01X11458Y7926D01*
G01X11459Y7923D01*
G01X11472Y7881D01*
G01X11473Y7879D01*
G01X11484Y7836D01*
G01X11485Y7833D01*
G01X11494Y7790D01*
G01X11495Y7787D01*
G01X11502Y7743D01*
G01Y7741D01*
G01X11507Y7697D01*
G01X11508Y7694D01*
G01X11511Y7650D01*
G01Y7648D01*
G01X11512Y7603D01*
G01Y7602D01*
G01Y5748D01*
G01Y5746D01*
G01X11511Y5702D01*
G01Y5700D01*
G01X11508Y5655D01*
G01X11507Y5653D01*
G01X11502Y5609D01*
G01Y5606D01*
G01X11495Y5562D01*
G01X11494Y5560D01*
G01X11485Y5516D01*
G01X11484Y5514D01*
G01X11473Y5471D01*
G01X11472Y5469D01*
G01X11459Y5426D01*
G01X11458Y5424D01*
G01X11443Y5382D01*
G01X11442Y5380D01*
G01X11424Y5339D01*
G01Y5337D01*
G01X11404Y5296D01*
G01X11403Y5294D01*
G01X11382Y5255D01*
G01X11381Y5253D01*
G01X11358Y5215D01*
G01X11357Y5213D01*
G01X11332Y5176D01*
G01X11331Y5174D01*
G01X11305Y5138D01*
G01X11303Y5136D01*
G01X11275Y5101D01*
G01X11274Y5099D01*
G01X11244Y5066D01*
G01X11242Y5064D01*
G01X11211Y5033D01*
G01Y5032D01*
G01X11209Y5031D01*
G01X11177Y5000D01*
G01X11175Y4999D01*
G01X11141Y4970D01*
G01X11139Y4969D01*
G01X11104Y4941D01*
G01X11102Y4940D01*
G01X11066Y4914D01*
G01X11064Y4913D01*
G01X11026Y4889D01*
G01X11024Y4888D01*
G01X10985Y4866D01*
G01X10983Y4865D01*
G01X10943Y4845D01*
G01X10932Y4841D01*
G01X10892Y4832D01*
G01Y3175D01*
G37*
G54D31*
G01X12002Y3963D03*
G01X9002Y3963D03*
G36*
G01X-16216Y-5297D02*
G01X-16261Y-5296D01*
G01X-16263D01*
G01X-16307Y-5293D01*
G01X-16310D01*
G01X-16354Y-5288D01*
G01X-16356Y-5287D01*
G01X-16400Y-5280D01*
G01X-16403D01*
G01X-16446Y-5270D01*
G01X-16448D01*
G01X-16491Y-5258D01*
G01X-16494D01*
G01X-16536Y-5244D01*
G01X-16538D01*
G01X-16580Y-5228D01*
G01X-16582Y-5227D01*
G01X-16624Y-5210D01*
G01X-16626Y-5209D01*
G01X-16666Y-5190D01*
G01X-16668Y-5189D01*
G01X-16707Y-5168D01*
G01X-16709Y-5167D01*
G01X-16747Y-5144D01*
G01X-16749Y-5143D01*
G01X-16787Y-5118D01*
G01X-16788Y-5117D01*
G01X-16824Y-5090D01*
G01X-16826Y-5089D01*
G01X-16861Y-5061D01*
G01X-16863Y-5059D01*
G01X-16896Y-5030D01*
G01X-16898Y-5028D01*
G01X-16930Y-4997D01*
G01X-16931Y-4995D01*
G01X-16962Y-4963D01*
G01X-16963Y-4961D01*
G01X-16992Y-4927D01*
G01X-16993Y-4925D01*
G01X-17021Y-4890D01*
G01X-17022Y-4888D01*
G01X-17047Y-4851D01*
G01X-17049Y-4849D01*
G01X-17072Y-4812D01*
G01X-17074Y-4810D01*
G01X-17096Y-4771D01*
G01X-17097Y-4769D01*
G01X-17117Y-4729D01*
G01X-17118Y-4727D01*
G01X-17136Y-4686D01*
G01X-17137Y-4684D01*
G01X-17153Y-4643D01*
G01X-17154Y-4641D01*
G01X-17169Y-4599D01*
G01Y-4596D01*
G01X-17182Y-4554D01*
G01Y-4551D01*
G01X-17193Y-4508D01*
G01Y-4506D01*
G01X-17201Y-4462D01*
G01X-17202Y-4460D01*
G01X-17208Y-4415D01*
G01Y-4413D01*
G01X-17212Y-4369D01*
G01X-17213Y-4366D01*
G01X-17215Y-4322D01*
G01Y-4320D01*
G01Y-4275D01*
G01Y-4273D01*
G01X-17213Y-4228D01*
G01X-17212Y-4226D01*
G01X-17208Y-4182D01*
G01Y-4179D01*
G01X-17202Y-4135D01*
G01X-17201Y-4133D01*
G01X-17193Y-4089D01*
G01Y-4087D01*
G01X-17182Y-4043D01*
G01Y-4041D01*
G01X-17169Y-3998D01*
G01Y-3996D01*
G01X-17154Y-3954D01*
G01X-17153Y-3952D01*
G01X-17137Y-3910D01*
G01X-17136Y-3908D01*
G01X-17118Y-3868D01*
G01X-17117Y-3865D01*
G01X-17097Y-3826D01*
G01X-17096Y-3824D01*
G01X-17074Y-3785D01*
G01X-17072Y-3783D01*
G01X-17049Y-3745D01*
G01X-17047Y-3743D01*
G01X-17022Y-3707D01*
G01X-17021Y-3705D01*
G01X-16993Y-3670D01*
G01X-16992Y-3668D01*
G01X-16963Y-3634D01*
G01X-16962Y-3632D01*
G01X-16931Y-3599D01*
G01X-16930Y-3598D01*
G01X-16898Y-3567D01*
G01X-16896Y-3565D01*
G01X-16863Y-3535D01*
G01X-16861Y-3534D01*
G01X-16826Y-3506D01*
G01X-16824Y-3504D01*
G01X-16788Y-3478D01*
G01X-16787Y-3477D01*
G01X-16749Y-3452D01*
G01X-16747Y-3451D01*
G01X-16709Y-3428D01*
G01X-16707Y-3427D01*
G01X-16668Y-3406D01*
G01X-16666Y-3405D01*
G01X-16626Y-3386D01*
G01X-16624Y-3385D01*
G01X-16582Y-3367D01*
G01X-16580Y-3366D01*
G01X-16538Y-3351D01*
G01X-16536Y-3350D01*
G01X-16494Y-3337D01*
G01X-16491Y-3336D01*
G01X-16448Y-3325D01*
G01X-16446Y-3324D01*
G01X-16403Y-3315D01*
G01X-16400D01*
G01X-16356Y-3307D01*
G01X-16354D01*
G01X-16310Y-3302D01*
G01X-16307D01*
G01X-16263Y-3299D01*
G01X-16261Y-3298D01*
G01X-16216Y-3297D01*
G01X-16215D01*
G01X-14361D01*
G01X-14360D01*
G01X-14315Y-3298D01*
G01X-14313Y-3299D01*
G01X-14268Y-3302D01*
G01X-14266D01*
G01X-14222Y-3307D01*
G01X-14219D01*
G01X-14175Y-3315D01*
G01X-14173D01*
G01X-14130Y-3324D01*
G01X-14127Y-3325D01*
G01X-14084Y-3336D01*
G01X-14082Y-3337D01*
G01X-14040Y-3350D01*
G01X-14037Y-3351D01*
G01X-13995Y-3366D01*
G01X-13993Y-3367D01*
G01X-13952Y-3385D01*
G01X-13950Y-3386D01*
G01X-13910Y-3405D01*
G01X-13908Y-3406D01*
G01X-13869Y-3427D01*
G01X-13867Y-3428D01*
G01X-13828Y-3451D01*
G01X-13826Y-3452D01*
G01X-13789Y-3477D01*
G01X-13787Y-3478D01*
G01X-13751Y-3504D01*
G01X-13750Y-3506D01*
G01X-13715Y-3534D01*
G01X-13713Y-3535D01*
G01X-13680Y-3565D01*
G01X-13678Y-3567D01*
G01X-13646Y-3598D01*
G01X-13645Y-3599D01*
G01X-13614Y-3632D01*
G01X-13613Y-3634D01*
G01X-13584Y-3668D01*
G01X-13582Y-3670D01*
G01X-13555Y-3705D01*
G01X-13554Y-3707D01*
G01X-13528Y-3743D01*
G01X-13527Y-3745D01*
G01X-13503Y-3783D01*
G01X-13502Y-3785D01*
G01X-13480Y-3824D01*
G01X-13479Y-3826D01*
G01X-13459Y-3865D01*
G01X-13455Y-3877D01*
G01X-13445Y-3917D01*
G01X-11788D01*
G02X-11738Y-3967I0J-50D01*
G01Y-4627D01*
G02X-11788Y-4677I-50J0D01*
G01X-13445D01*
G01X-13455Y-4718D01*
G01X-13459Y-4729D01*
G01X-13479Y-4769D01*
G01X-13480Y-4771D01*
G01X-13502Y-4810D01*
G01X-13503Y-4812D01*
G01X-13527Y-4849D01*
G01X-13528Y-4851D01*
G01X-13554Y-4888D01*
G01X-13555Y-4890D01*
G01X-13582Y-4925D01*
G01X-13584Y-4927D01*
G01X-13613Y-4961D01*
G01X-13614Y-4963D01*
G01X-13645Y-4995D01*
G01X-13646Y-4997D01*
G01X-13678Y-5028D01*
G01X-13680Y-5030D01*
G01X-13713Y-5059D01*
G01X-13715Y-5061D01*
G01X-13750Y-5089D01*
G01X-13751Y-5090D01*
G01X-13787Y-5117D01*
G01X-13789Y-5118D01*
G01X-13826Y-5143D01*
G01X-13828Y-5144D01*
G01X-13867Y-5167D01*
G01X-13869Y-5168D01*
G01X-13908Y-5189D01*
G01X-13910Y-5190D01*
G01X-13950Y-5209D01*
G01X-13952Y-5210D01*
G01X-13993Y-5227D01*
G01X-13995Y-5228D01*
G01X-14037Y-5244D01*
G01X-14040D01*
G01X-14082Y-5258D01*
G01X-14084D01*
G01X-14127Y-5270D01*
G01X-14130D01*
G01X-14173Y-5280D01*
G01X-14175D01*
G01X-14219Y-5287D01*
G01X-14222Y-5288D01*
G01X-14266Y-5293D01*
G01X-14268D01*
G01X-14313Y-5296D01*
G01X-14315D01*
G01X-14360Y-5297D01*
G01X-14361D01*
G01X-16215D01*
G01X-16216D01*
G37*
G54D32*
G01X-12576Y-2806D03*
G01X-12576Y-5806D03*
G54D18*
G01X-5427Y-7126D03*
G01X-3920Y-7126D03*
G54D20*
G01X-10460Y-2244D03*
G01X-10460Y-3751D03*
G54D33*
G01X-10011Y3606D03*
G01X-10011Y6564D03*
G54D34*
G01X-2033Y6452D03*
G01X925Y6452D03*
G54D35*
G01X-2856Y-5309D03*
G01X-2856Y-4039D03*
G01X-2856Y-2769D03*
G01X-2856Y-1499D03*
G01X-8254Y-5309D03*
G01X-8254Y-4039D03*
G01X-8254Y-2769D03*
G01X-8254Y-1499D03*
G54D30*
G01X-13287Y-245D03*
G01X-16687Y-245D03*
G54D18*
G01X-8493Y-7111D03*
G01X-6987Y-7111D03*
G54D21*
G01X-10412Y-6908D03*
G01X-10412Y-5508D03*
G54D19*
G01X9586Y-14884D03*
G01X8080Y-14884D03*
G54D36*
G01X18500Y7620D03*
G01X14900Y5080D03*
G01X18500Y2540D03*
G01X14900Y0D03*
G01X14900Y-5080D03*
G01X18500Y-2540D03*
G01X18500Y-7620D03*
G04 Pad End*

M02*
